<svg xmlns="http://www.w3.org/2000/svg" version="1.1" xmlns:xlink="http://www.w3.org/1999/xlink" xmlns:svgjs="http://svgjs.dev/svgjs" width="2000" height="1500" viewBox="0 0 2000 1500"><rect width="2000" height="1500" fill="#fff3e1"></rect><g transform="matrix(0.75,0,0,0.75,249.090909090909,607.3877680211398)"><svg viewBox="0 0 396 75" data-background-color="#fff3e1" preserveAspectRatio="xMidYMid meet" height="378" width="2000" xmlns="http://www.w3.org/2000/svg" xmlns:xlink="http://www.w3.org/1999/xlink"><g id="tight-bounds" transform="matrix(1,0,0,1,0.24000000000003752,0.2281036981111697)"><svg viewBox="0 0 395.5199999999999 74.54379260377765" height="74.54379260377765" width="395.5199999999999"><g><svg viewBox="0 0 454.71979226385304 85.70119813751396" height="74.54379260377765" width="395.5199999999999"><g transform="matrix(1,0,0,1,59.19979226385308,0)"><svg viewBox="0 0 395.52 85.70119813751396" height="85.70119813751396" width="395.52"><g id="textblocktransform"><svg viewBox="0 0 395.52 85.70119813751396" height="85.70119813751396" width="395.52" id="textblock"><g><svg viewBox="0 0 395.52 49.93310236220472" height="49.93310236220472" width="395.52"><g transform="matrix(1,0,0,1,0,0)"><svg width="395.52" viewBox="2.6 -35.85 380.96 48.1" height="49.93310236220472" data-palette-color="#2a2325"><path d="M2.6 0.15L2.6 0.15Q2.6-0.65 2.65-1.25 2.7-1.85 2.85-2.25L2.85-2.25Q4.2-2.35 4.95-2.75 5.7-3.15 6-4.1 6.3-5.05 6.3-6.8L6.3-6.8 6.3-27Q6.3-28.8 6-29.73 5.7-30.65 4.98-31.05 4.25-31.45 2.9-31.55L2.9-31.55Q2.7-32 2.65-32.6 2.6-33.2 2.6-33.95L2.6-33.95Q3.5-33.9 4.67-33.88 5.85-33.85 7.15-33.83 8.45-33.8 9.65-33.8 10.85-33.8 11.8-33.8L11.8-33.8 11.8-7.75Q11.8-5.6 12.28-4.45 12.75-3.3 13.78-2.85 14.8-2.4 16.45-2.25L16.45-2.25Q16.6-1.8 16.65-1.2 16.7-0.6 16.7 0.15L16.7 0.15Q15.95 0.1 14.83 0.08 13.7 0.05 12.43 0.03 11.15 0 9.9 0L9.9 0Q8 0 5.85 0.03 3.7 0.05 2.6 0.15ZM23-10.1L23-10.1Q22.25-10.1 21.63-10.15 21-10.2 20.4-10.4L20.4-10.4Q20.2-12.9 19.07-13.8 17.95-14.7 15-14.7L15-14.7 11.5-14.7 11.5-17.1 15-17.1Q18-17.1 19.13-17.9 20.25-18.7 20.3-21.05L20.3-21.05Q20.95-21.25 21.63-21.35 22.3-21.45 23-21.45L23-21.45Q22.95-20.2 22.93-18.75 22.9-17.3 22.9-15.95L22.9-15.95Q22.9-14.5 22.93-12.93 22.95-11.35 23-10.1ZM24.05-25.25L24.05-25.25Q23.9-26.85 23.2-28.28 22.5-29.7 20.83-30.63 19.15-31.55 16.05-31.55L16.05-31.55 10.4-31.55 11.6-33.8Q15.6-33.8 18.38-33.83 21.15-33.85 22.98-33.9 24.8-33.95 25.65-33.95L25.65-33.95Q25.75-32.85 25.9-31.35 26.05-29.85 26.25-28.43 26.45-27 26.7-25.9L26.7-25.9Q26.25-25.55 25.58-25.4 24.9-25.25 24.05-25.25ZM30.3 0.15L30.3 0.15Q30.3-0.45 30.37-1.1 30.45-1.75 30.6-2.25L30.6-2.25Q32.6-2.3 33.3-3.2 34-4.1 34-6.6L34-6.6 34-15.95Q34-17.15 33.77-17.93 33.55-18.7 32.75-19.1 31.95-19.5 30.25-19.5L30.25-19.5Q30.25-20.1 30.37-20.65 30.5-21.2 30.75-21.65L30.75-21.65Q31.75-21.65 33.25-21.9 34.75-22.15 36.1-22.55 37.45-22.95 38.1-23.35L38.1-23.35Q38.6-23.15 38.95-22.65 39.3-22.15 39.3-21.15L39.3-21.15 39.3-6.6Q39.3-4.1 39.97-3.2 40.65-2.3 42.3-2.25L42.3-2.25Q42.45-1.75 42.5-1.05 42.55-0.35 42.55 0.15L42.55 0.15Q41.75 0.1 40.75 0.08 39.75 0.05 38.65 0.03 37.55 0 36.5 0L36.5 0Q35.4 0 34.27 0.03 33.15 0.05 32.12 0.08 31.1 0.1 30.3 0.15ZM36.2-28.5L36.2-28.5Q34.75-28.5 33.82-29.38 32.9-30.25 32.9-31.55L32.9-31.55Q32.9-33.05 33.9-33.95 34.9-34.85 36.25-34.85L36.25-34.85Q37.8-34.85 38.7-33.95 39.6-33.05 39.6-31.6L39.6-31.6Q39.6-30.35 38.62-29.43 37.65-28.5 36.2-28.5ZM46 0.15L46 0.15Q46-0.45 46.05-1.1 46.09-1.75 46.25-2.25L46.25-2.25Q48.25-2.3 48.97-3.2 49.7-4.1 49.7-6.6L49.7-6.6 49.7-28.55Q49.7-29.7 49.45-30.45 49.2-31.2 48.4-31.6 47.59-32 45.95-32L45.95-32Q45.95-32.6 46.05-33.15 46.15-33.7 46.4-34.15L46.4-34.15Q47.45-34.15 48.95-34.4 50.45-34.65 51.77-35.05 53.09-35.45 53.75-35.85L53.75-35.85Q54.25-35.65 54.59-35.15 54.95-34.65 54.95-33.65L54.95-33.65 54.95-6.6Q54.95-4.1 55.62-3.2 56.3-2.3 57.95-2.25L57.95-2.25Q58.09-1.75 58.17-1.05 58.25-0.35 58.25 0.15L58.25 0.15Q57.4 0.1 56.4 0.08 55.4 0.05 54.3 0.03 53.2 0 52.15 0L52.15 0Q51.09 0 49.95 0.03 48.8 0.05 47.8 0.08 46.8 0.1 46 0.15ZM61.64 0.15L61.64 0.15Q61.64-0.45 61.72-1.1 61.79-1.75 61.94-2.25L61.94-2.25Q63.94-2.3 64.64-3.2 65.34-4.1 65.34-6.6L65.34-6.6 65.34-15.95Q65.34-17.15 65.12-17.93 64.89-18.7 64.09-19.1 63.29-19.5 61.59-19.5L61.59-19.5Q61.59-20.1 61.72-20.65 61.84-21.2 62.09-21.65L62.09-21.65Q63.09-21.65 64.59-21.9 66.09-22.15 67.44-22.55 68.79-22.95 69.44-23.35L69.44-23.35Q69.94-23.15 70.29-22.65 70.64-22.15 70.64-21.15L70.64-21.15 70.64-6.6Q70.64-4.1 71.32-3.2 71.99-2.3 73.64-2.25L73.64-2.25Q73.79-1.75 73.84-1.05 73.89-0.35 73.89 0.15L73.89 0.15Q73.09 0.1 72.09 0.08 71.09 0.05 69.99 0.03 68.89 0 67.84 0L67.84 0Q66.74 0 65.62 0.03 64.49 0.05 63.47 0.08 62.44 0.1 61.64 0.15ZM67.54-28.5L67.54-28.5Q66.09-28.5 65.17-29.38 64.24-30.25 64.24-31.55L64.24-31.55Q64.24-33.05 65.24-33.95 66.24-34.85 67.59-34.85L67.59-34.85Q69.14-34.85 70.04-33.95 70.94-33.05 70.94-31.6L70.94-31.6Q70.94-30.35 69.97-29.43 68.99-28.5 67.54-28.5ZM77.44 12.25L77.44 12.25Q77.44 11.45 77.49 10.85 77.54 10.25 77.74 9.85L77.74 9.85Q79.09 9.75 79.81 9.35 80.54 8.95 80.84 8 81.14 7.05 81.14 5.3L81.14 5.3 81.14-15.8Q81.14-17.1 80.92-17.88 80.69-18.65 79.89-19.05 79.09-19.45 77.44-19.5L77.44-19.5Q77.44-20.1 77.54-20.65 77.64-21.2 77.89-21.65L77.89-21.65Q79.79-21.75 81.94-22.25 84.09-22.75 85.24-23.35L85.24-23.35Q85.74-23.15 86.09-22.65 86.44-22.15 86.44-21L86.44-21Q86.44-20 86.12-19 85.79-18 85.29-16.45L85.29-16.45 86.44-15.45 86.44 4.35Q86.44 6.5 86.89 7.65 87.34 8.8 88.37 9.25 89.39 9.7 91.04 9.85L91.04 9.85Q91.19 10.3 91.27 10.9 91.34 11.5 91.34 12.25L91.34 12.25Q90.54 12.2 89.44 12.18 88.34 12.15 87.09 12.13 85.84 12.1 84.59 12.1L84.59 12.1Q82.69 12.1 80.64 12.13 78.59 12.15 77.44 12.25ZM90.44 0.45L90.44 0.45Q89.09 0.45 88.06 0.23 87.04 0 85.79-0.4L85.79-0.4 85.79-4.45Q86.74-3.4 87.87-2.73 88.99-2.05 90.64-2.05L90.64-2.05Q91.64-2.05 92.81-2.45 93.99-2.85 95.09-3.88 96.19-4.9 96.89-6.78 97.59-8.65 97.59-11.65L97.59-11.65Q97.59-14.1 96.92-15.98 96.24-17.85 95.04-18.9 93.84-19.95 92.24-19.95L92.24-19.95Q90.84-19.95 89.49-19.05 88.14-18.15 87.29-16.13 86.44-14.1 86.44-10.7L86.44-10.7 84.84-15.95Q85.54-17.65 86.06-18.57 86.59-19.5 86.99-19.9L86.99-19.9Q87.44-20.65 88.42-21.45 89.39-22.25 90.77-22.8 92.14-23.35 93.74-23.35L93.74-23.35Q96.69-23.35 98.79-22.23 100.89-21.1 102.06-18.75 103.24-16.4 103.24-12.8L103.24-12.8Q103.24-9 101.64-6 100.04-3 97.17-1.28 94.29 0.45 90.44 0.45ZM106.94 12.25L106.94 12.25Q106.94 11.45 106.99 10.85 107.04 10.25 107.24 9.85L107.24 9.85Q108.59 9.75 109.31 9.35 110.04 8.95 110.34 8 110.64 7.05 110.64 5.3L110.64 5.3 110.64-15.8Q110.64-17.1 110.41-17.88 110.19-18.65 109.39-19.05 108.59-19.45 106.94-19.5L106.94-19.5Q106.94-20.1 107.04-20.65 107.14-21.2 107.39-21.65L107.39-21.65Q109.29-21.75 111.44-22.25 113.59-22.75 114.74-23.35L114.74-23.35Q115.24-23.15 115.59-22.65 115.94-22.15 115.94-21L115.94-21Q115.94-20 115.61-19 115.29-18 114.79-16.45L114.79-16.45 115.94-15.45 115.94 4.35Q115.94 6.5 116.39 7.65 116.84 8.8 117.86 9.25 118.89 9.7 120.54 9.85L120.54 9.85Q120.69 10.3 120.76 10.9 120.84 11.5 120.84 12.25L120.84 12.25Q120.04 12.2 118.94 12.18 117.84 12.15 116.59 12.13 115.34 12.1 114.09 12.1L114.09 12.1Q112.19 12.1 110.14 12.13 108.09 12.15 106.94 12.25ZM119.94 0.45L119.94 0.45Q118.59 0.45 117.56 0.23 116.54 0 115.29-0.4L115.29-0.4 115.29-4.45Q116.24-3.4 117.36-2.73 118.49-2.05 120.14-2.05L120.14-2.05Q121.14-2.05 122.31-2.45 123.49-2.85 124.59-3.88 125.69-4.9 126.39-6.78 127.09-8.65 127.09-11.65L127.09-11.65Q127.09-14.1 126.41-15.98 125.74-17.85 124.54-18.9 123.34-19.95 121.74-19.95L121.74-19.95Q120.34-19.95 118.99-19.05 117.64-18.15 116.79-16.13 115.94-14.1 115.94-10.7L115.94-10.7 114.34-15.95Q115.04-17.65 115.56-18.57 116.09-19.5 116.49-19.9L116.49-19.9Q116.94-20.65 117.91-21.45 118.89-22.25 120.26-22.8 121.64-23.35 123.24-23.35L123.24-23.35Q126.19-23.35 128.29-22.23 130.39-21.1 131.56-18.75 132.74-16.4 132.74-12.8L132.74-12.8Q132.74-9 131.14-6 129.54-3 126.66-1.28 123.79 0.45 119.94 0.45ZM148.19 0.45L148.19 0.45Q144.63 0.45 142.01-1.03 139.38-2.5 137.96-5.15 136.53-7.8 136.53-11.4L136.53-11.4Q136.53-14.9 138.06-17.6 139.58-20.3 142.23-21.83 144.88-23.35 148.23-23.35L148.23-23.35Q151.98-23.35 154.58-21.85 157.19-20.35 158.53-17.7 159.88-15.05 159.88-11.5L159.88-11.5Q159.88-8.05 158.44-5.33 156.98-2.6 154.36-1.07 151.73 0.45 148.19 0.45ZM148.69-2.2L148.69-2.2Q151.48-2.2 152.83-4.58 154.19-6.95 154.19-10.75L154.19-10.75Q154.19-13.85 153.31-16.13 152.44-18.4 150.96-19.58 149.48-20.75 147.73-20.75L147.73-20.75Q144.98-20.75 143.63-18.45 142.28-16.15 142.28-12.55L142.28-12.55Q142.28-9.35 143.06-7 143.83-4.65 145.28-3.43 146.73-2.2 148.69-2.2ZM189.68 0.45L189.68 0.45Q184.93 0.45 181.33-1.78 177.73-4 175.65-7.98 173.58-11.95 173.58-17.15L173.58-17.15Q173.58-21.45 174.98-24.65 176.38-27.85 178.75-30 181.13-32.15 184.13-33.2 187.13-34.25 190.38-34.25L190.38-34.25Q193.43-34.25 196.08-33.6 198.73-32.95 201.43-31.65L201.43-31.65Q201.08-29.9 200.98-27.93 200.88-25.95 200.88-23.9L200.88-23.9Q200.23-23.65 199.48-23.53 198.73-23.4 197.88-23.4L197.88-23.4Q197.78-26.8 196.88-28.65 195.98-30.5 194.4-31.2 192.83-31.9 190.73-31.9L190.73-31.9Q187.78-31.9 185.65-30.78 183.53-29.65 182.2-27.78 180.88-25.9 180.25-23.5 179.63-21.1 179.63-18.5L179.63-18.5Q179.63-14.1 181.05-10.55 182.48-7 185.23-4.93 187.98-2.85 191.93-2.85L191.93-2.85Q194.23-2.85 196.63-3.6 199.03-4.35 201.08-5.65L201.08-5.65Q201.43-5.4 201.7-4.88 201.98-4.35 202.08-3.95L202.08-3.95Q199.28-1.75 196.4-0.65 193.53 0.45 189.68 0.45ZM215.13-11.35L215.13-7.75Q215.13-5.6 215.58-4.45 216.03-3.3 217.05-2.85 218.08-2.4 219.73-2.25L219.73-2.25Q219.88-1.8 219.95-1.2 220.03-0.6 220.03 0.15L220.03 0.15Q219.23 0.1 218.13 0.08 217.03 0.05 215.78 0.03 214.53 0 213.28 0L213.28 0Q211.38 0 209.33 0.03 207.28 0.05 206.13 0.15L206.13 0.15Q206.13-0.65 206.18-1.25 206.23-1.85 206.43-2.25L206.43-2.25Q207.78-2.35 208.5-2.75 209.23-3.15 209.53-4.1 209.83-5.05 209.83-6.8L209.83-6.8 209.83-11.35 215.13-11.35ZM214.23-15.3L215.13-14.65 215.13-10.6 209.83-10.6 209.83-16.15 215.13-21Q215.13-19.45 214.83-18.1 214.53-16.75 214.23-15.3L214.23-15.3ZM215.13-11.9L214.03-15Q214.53-16.35 214.85-17.32 215.18-18.3 215.53-18.9L215.53-18.9Q216.63-20.65 218.15-21.8 219.68-22.95 221.68-22.95L221.68-22.95Q223.58-22.95 225.13-21.75L225.13-21.75Q225.03-20.9 224.93-19.78 224.83-18.65 224.8-17.53 224.78-16.4 224.78-15.45L224.78-15.45Q224.23-15.25 223.33-15.1 222.43-14.95 221.53-14.95L221.53-14.95Q221.43-17.2 220.8-17.98 220.18-18.75 219.18-18.75L219.18-18.75Q218.38-18.75 217.4-17.8 216.43-16.85 215.78-15.3 215.13-13.75 215.13-11.9L215.13-11.9ZM215.13-21L209.83-10.6 209.83-15.8Q209.83-17.1 209.6-17.88 209.38-18.65 208.58-19.05 207.78-19.45 206.13-19.5L206.13-19.5Q206.13-20.1 206.23-20.65 206.33-21.2 206.58-21.65L206.58-21.65Q208.48-21.75 210.63-22.25 212.78-22.75 213.93-23.35L213.93-23.35Q214.43-23.15 214.78-22.65 215.13-22.15 215.13-21L215.13-21ZM227.93 0.15L227.93 0.15Q227.93-0.45 228-1.1 228.07-1.75 228.22-2.25L228.22-2.25Q230.22-2.3 230.93-3.2 231.63-4.1 231.63-6.6L231.63-6.6 231.63-15.95Q231.63-17.15 231.4-17.93 231.18-18.7 230.38-19.1 229.57-19.5 227.88-19.5L227.88-19.5Q227.88-20.1 228-20.65 228.13-21.2 228.38-21.65L228.38-21.65Q229.38-21.65 230.88-21.9 232.38-22.15 233.72-22.55 235.07-22.95 235.72-23.35L235.72-23.35Q236.22-23.15 236.57-22.65 236.93-22.15 236.93-21.15L236.93-21.15 236.93-6.6Q236.93-4.1 237.6-3.2 238.28-2.3 239.93-2.25L239.93-2.25Q240.07-1.75 240.13-1.05 240.18-0.35 240.18 0.15L240.18 0.15Q239.38 0.1 238.38 0.08 237.38 0.05 236.28 0.03 235.18 0 234.13 0L234.13 0Q233.03 0 231.9 0.03 230.78 0.05 229.75 0.08 228.72 0.1 227.93 0.15ZM233.82-28.5L233.82-28.5Q232.38-28.5 231.45-29.38 230.53-30.25 230.53-31.55L230.53-31.55Q230.53-33.05 231.53-33.95 232.53-34.85 233.88-34.85L233.88-34.85Q235.43-34.85 236.32-33.95 237.22-33.05 237.22-31.6L237.22-31.6Q237.22-30.35 236.25-29.43 235.28-28.5 233.82-28.5ZM260.17-21.65L260.17-21.65Q260.12-20.4 260.12-19.05 260.12-17.7 260.32-16.4L260.32-16.4Q259.77-16.1 259-15.93 258.22-15.75 257.42-15.75L257.42-15.75Q257.32-17.1 256.65-18.3 255.97-19.5 254.82-20.25 253.67-21 252.07-21L252.07-21Q250.62-21 249.77-20.3 248.92-19.6 248.92-18.45L248.92-18.45Q248.92-17.65 249.27-17.03 249.62-16.4 250.87-15.68 252.12-14.95 254.72-13.9L254.72-13.9Q257.47-12.9 259.02-11.88 260.57-10.85 261.25-9.63 261.92-8.4 261.92-6.6L261.92-6.6Q261.92-4.5 260.7-2.9 259.47-1.3 257.3-0.43 255.12 0.45 252.37 0.45L252.37 0.45Q249.32 0.45 247.5-0.03 245.67-0.5 243.87-1.35L243.87-1.35Q244.02-2.2 244.05-3.35 244.07-4.5 244.07-5.63 244.07-6.75 243.97-7.55L243.97-7.55Q244.42-7.9 245.27-8.05 246.12-8.2 246.92-8.2L246.92-8.2Q247.32-5.15 248.8-3.65 250.27-2.15 252.72-2.15L252.72-2.15Q254.57-2.15 255.65-2.98 256.72-3.8 256.72-5.15L256.72-5.15Q256.72-6 256.3-6.65 255.87-7.3 254.77-7.93 253.67-8.55 251.47-9.4L251.47-9.4Q248.87-10.45 247.25-11.4 245.62-12.35 244.87-13.68 244.12-15 244.12-17.05L244.12-17.05Q244.12-18.65 244.92-19.85 245.72-21.05 247-21.83 248.27-22.6 249.8-22.98 251.32-23.35 252.72-23.35L252.72-23.35Q255.12-23.35 256.87-22.93 258.62-22.5 260.17-21.65ZM274.47 0.45L274.47 0.45Q271.37 0.45 269.84-1.15 268.32-2.75 268.32-6.4L268.32-6.4 268.32-19.3Q267.57-19.55 266.75-19.73 265.92-19.9 264.72-19.95L264.72-19.95Q264.72-20.65 264.82-21.2 264.92-21.75 265.17-22.4L265.17-22.4 268.32-22.4 268.32-28.85Q269.52-29.1 270.69-29.7 271.87-30.3 272.67-31L272.67-31Q273.22-30.8 273.42-30.35 273.62-29.9 273.62-28.25L273.62-28.25 273.62-22.4 280.02-22.4Q280.02-21.8 279.92-21.15 279.82-20.5 279.57-19.9L279.57-19.9Q277.77-19.9 276.3-19.7 274.82-19.5 273.62-19.25L273.62-19.25 273.62-7.4Q273.62-5.65 273.94-4.58 274.27-3.5 274.89-3 275.52-2.5 276.42-2.5L276.42-2.5Q277.42-2.5 278.19-2.78 278.97-3.05 279.67-3.6L279.67-3.6Q280.32-2.8 280.42-1.7L280.42-1.7Q279.57-0.8 277.87-0.18 276.17 0.45 274.47 0.45ZM295.27 0.45L295.27 0.45Q291.72 0.45 289.09-1.03 286.47-2.5 285.04-5.15 283.62-7.8 283.62-11.4L283.62-11.4Q283.62-14.9 285.14-17.6 286.67-20.3 289.32-21.83 291.97-23.35 295.32-23.35L295.32-23.35Q299.07-23.35 301.67-21.85 304.27-20.35 305.62-17.7 306.97-15.05 306.97-11.5L306.97-11.5Q306.97-8.05 305.52-5.33 304.07-2.6 301.44-1.07 298.82 0.45 295.27 0.45ZM295.77-2.2L295.77-2.2Q298.57-2.2 299.92-4.58 301.27-6.95 301.27-10.75L301.27-10.75Q301.27-13.85 300.39-16.13 299.52-18.4 298.04-19.58 296.57-20.75 294.82-20.75L294.82-20.75Q292.07-20.75 290.72-18.45 289.37-16.15 289.37-12.55L289.37-12.55Q289.37-9.35 290.14-7 290.92-4.65 292.37-3.43 293.82-2.2 295.77-2.2ZM319.46-22.4L325.11-22.4Q325.11-21.8 325.01-21.1 324.91-20.4 324.61-19.85L324.61-19.85Q323.16-19.85 321.89-19.68 320.61-19.5 319.46-19.15L319.46-19.15 319.46-22.4ZM314.61-10.4L314.61-24.3Q314.61-28.1 316.14-30.65 317.66-33.2 320.14-34.45 322.61-35.7 325.36-35.7L325.36-35.7Q327.36-35.7 328.54-35.33 329.71-34.95 330.56-34.4L330.56-34.4Q330.46-32.9 330.41-31.33 330.36-29.75 330.36-28.4L330.36-28.4Q329.66-28.15 328.74-28.05 327.81-27.95 327.01-27.95L327.01-27.95Q327.01-30.1 326.16-31.45 325.31-32.8 323.36-32.8L323.36-32.8Q322.11-32.8 321.34-32.02 320.56-31.25 320.21-29.73 319.86-28.2 319.86-25.9L319.86-25.9 319.86-10.4 314.61-10.4ZM311.36-22.4L315.46-22.4 315.46-19.2Q314.16-19.6 312.86-19.75 311.56-19.9 310.66-19.9L310.66-19.9Q310.66-20.6 310.81-21.23 310.96-21.85 311.36-22.4L311.36-22.4ZM319.86-11.35L319.86-7.75Q319.86-5.6 320.34-4.45 320.81-3.3 321.84-2.85 322.86-2.4 324.46-2.25L324.46-2.25Q324.66-1.8 324.71-1.2 324.76-0.6 324.76 0.15L324.76 0.15Q323.96 0.1 322.86 0.08 321.76 0.05 320.54 0.03 319.31 0 318.06 0L318.06 0Q316.16 0 314.09 0.03 312.01 0.05 310.91 0.15L310.91 0.15Q310.91-0.65 310.96-1.25 311.01-1.85 311.16-2.25L311.16-2.25Q312.51-2.35 313.26-2.75 314.01-3.15 314.31-4.1 314.61-5.05 314.61-6.8L314.61-6.8 314.61-11.35 319.86-11.35ZM340.31 0.45L340.31 0.45Q336.76 0.45 334.14-1.03 331.51-2.5 330.09-5.15 328.66-7.8 328.66-11.4L328.66-11.4Q328.66-14.9 330.19-17.6 331.71-20.3 334.36-21.83 337.01-23.35 340.36-23.35L340.36-23.35Q344.11-23.35 346.71-21.85 349.31-20.35 350.66-17.7 352.01-15.05 352.01-11.5L352.01-11.5Q352.01-8.05 350.56-5.33 349.11-2.6 346.49-1.07 343.86 0.45 340.31 0.45ZM340.81-2.2L340.81-2.2Q343.61-2.2 344.96-4.58 346.31-6.95 346.31-10.75L346.31-10.75Q346.31-13.85 345.44-16.13 344.56-18.4 343.09-19.58 341.61-20.75 339.86-20.75L339.86-20.75Q337.11-20.75 335.76-18.45 334.41-16.15 334.41-12.55L334.41-12.55Q334.41-9.35 335.19-7 335.96-4.65 337.41-3.43 338.86-2.2 340.81-2.2ZM355.66 0.15L355.66 0.15Q355.66-0.45 355.71-1.1 355.76-1.75 355.91-2.25L355.91-2.25Q357.91-2.3 358.63-3.2 359.36-4.1 359.36-6.6L359.36-6.6 359.36-28.55Q359.36-29.7 359.11-30.45 358.86-31.2 358.06-31.6 357.26-32 355.61-32L355.61-32Q355.61-32.6 355.71-33.15 355.81-33.7 356.06-34.15L356.06-34.15Q357.11-34.15 358.61-34.4 360.11-34.65 361.44-35.05 362.76-35.45 363.41-35.85L363.41-35.85Q363.91-35.65 364.26-35.15 364.61-34.65 364.61-33.65L364.61-33.65 364.61-6.6Q364.61-4.1 365.28-3.2 365.96-2.3 367.61-2.25L367.61-2.25Q367.76-1.75 367.83-1.05 367.91-0.35 367.91 0.15L367.91 0.15Q367.06 0.1 366.06 0.08 365.06 0.05 363.96 0.03 362.86 0 361.81 0L361.81 0Q360.76 0 359.61 0.03 358.46 0.05 357.46 0.08 356.46 0.1 355.66 0.15ZM371.31 0.15L371.31 0.15Q371.31-0.45 371.38-1.1 371.46-1.75 371.61-2.25L371.61-2.25Q373.61-2.3 374.31-3.2 375.01-4.1 375.01-6.6L375.01-6.6 375.01-15.95Q375.01-17.15 374.78-17.93 374.56-18.7 373.76-19.1 372.96-19.5 371.26-19.5L371.26-19.5Q371.26-20.1 371.38-20.65 371.51-21.2 371.76-21.65L371.76-21.65Q372.76-21.65 374.26-21.9 375.76-22.15 377.11-22.55 378.46-22.95 379.11-23.35L379.11-23.35Q379.61-23.15 379.96-22.65 380.31-22.15 380.31-21.15L380.31-21.15 380.31-6.6Q380.31-4.1 380.98-3.2 381.66-2.3 383.31-2.25L383.31-2.25Q383.46-1.75 383.51-1.05 383.56-0.35 383.56 0.15L383.56 0.15Q382.76 0.1 381.76 0.08 380.76 0.05 379.66 0.03 378.56 0 377.51 0L377.51 0Q376.41 0 375.28 0.03 374.16 0.05 373.13 0.08 372.11 0.1 371.31 0.15ZM377.21-28.5L377.21-28.5Q375.76-28.5 374.83-29.38 373.91-30.25 373.91-31.55L373.91-31.55Q373.91-33.05 374.91-33.95 375.91-34.85 377.26-34.85L377.26-34.85Q378.81-34.85 379.71-33.95 380.61-33.05 380.61-31.6L380.61-31.6Q380.61-30.35 379.63-29.43 378.66-28.5 377.21-28.5Z" opacity="1" transform="matrix(1,0,0,1,0,0)" fill="#2a2325" class="wordmark-text-0" data-fill-palette-color="primary" id="text-0"></path></svg></g></svg></g><g transform="matrix(1,0,0,1,0,61.72110943546456)"><svg viewBox="0 0 263.02079999999995 23.980088702049393" height="23.980088702049393" width="263.02079999999995"><g transform="matrix(1,0,0,1,0,0)"><svg width="263.02079999999995" viewBox="2.8 -34.25 380.57 34.7" height="23.980088702049393" data-palette-color="#f88552"><path d="M29.8-7.5L29.7 0.3 6.3-30.25Q5.6-31.15 4.95-31.43 4.3-31.7 3.05-31.8L3.05-31.8Q2.9-32.35 2.85-32.95 2.8-33.55 2.8-33.95L2.8-33.95Q3.3-33.9 3.93-33.88 4.55-33.85 5.23-33.83 5.9-33.8 6.5-33.8L6.5-33.8Q7.45-33.8 8.33-33.85 9.2-33.9 9.85-33.95L9.85-33.95 29.8-7.5ZM2.8 0.15L2.8 0.15Q2.8-0.5 2.85-1.03 2.9-1.55 3.05-2L3.05-2Q4.4-2 5.15-2.65 5.9-3.3 6.2-4.93 6.5-6.55 6.5-9.35L6.5-9.35 6.5-30.5 9.05-30.5 9.05-9.35Q9.05-6.55 9.35-4.93 9.65-3.3 10.4-2.65 11.15-2 12.5-2L12.5-2Q12.65-1.55 12.7-1.05 12.75-0.55 12.75 0.15L12.75 0.15Q12 0.1 11.13 0.08 10.25 0.05 9.4 0.03 8.55 0 7.8 0L7.8 0Q7.1 0 6.15 0.03 5.2 0.05 4.33 0.08 3.45 0.1 2.8 0.15ZM29.7 0.3L29.7 0.3 29.3-4.7 29.3-24.7Q29.3-27.45 29-28.98 28.7-30.5 27.95-31.15 27.2-31.8 25.85-31.8L25.85-31.8Q25.7-32.65 25.65-33.08 25.6-33.5 25.6-33.95L25.6-33.95Q26.35-33.9 27.15-33.88 27.95-33.85 28.78-33.83 29.6-33.8 30.3-33.8L30.3-33.8Q31.35-33.8 32.7-33.85 34.05-33.9 35.05-33.95L35.05-33.95Q35.05-33.45 35-32.9 34.95-32.35 34.8-31.8L34.8-31.8Q33.7-31.8 33.05-31.15 32.4-30.5 32.13-28.98 31.85-27.45 31.85-24.7L31.85-24.7 31.85 0Q31.45 0.15 30.85 0.23 30.25 0.3 29.7 0.3ZM65.6-25.45L65.6-13.45Q65.6-9.15 65.05-6.65 64.5-4.15 62.75-2.4L62.75-2.4Q61.35-1 59.27-0.28 57.2 0.45 54.65 0.45L54.65 0.45Q50 0.45 47.32-0.93 44.65-2.3 43.52-5 42.4-7.7 42.4-11.55L42.4-11.55 42.4-27.45Q42.4-29.25 42.17-30.13 41.95-31 41.32-31.33 40.7-31.65 39.45-31.8L39.45-31.8Q39.3-32.35 39.25-32.9 39.2-33.45 39.2-33.95L39.2-33.95Q40.2-33.9 41.82-33.85 43.45-33.8 45-33.8L45-33.8Q45.75-33.8 46.55-33.8 47.35-33.8 48.1-33.83 48.85-33.85 49.55-33.88 50.25-33.9 50.8-33.95L50.8-33.95Q50.8-33.45 50.75-32.9 50.7-32.35 50.55-31.8L50.55-31.8Q49.1-31.7 48.35-31.38 47.6-31.05 47.35-30.18 47.1-29.3 47.1-27.45L47.1-27.45 47.1-12.25Q47.1-9.45 47.85-7.15 48.6-4.85 50.45-3.53 52.3-2.2 55.6-2.2L55.6-2.2Q56.85-2.2 58.35-2.63 59.85-3.05 60.9-4.1L60.9-4.1Q61.7-4.9 62.15-5.95 62.6-7 62.82-8.7 63.05-10.4 63.05-13.05L63.05-13.05 63.05-25.45Q63.05-27.85 62.8-29.18 62.55-30.5 61.82-31.1 61.1-31.7 59.6-31.8L59.6-31.8Q59.45-32.55 59.4-33 59.35-33.45 59.35-33.95L59.35-33.95Q59.95-33.9 60.75-33.88 61.55-33.85 62.42-33.83 63.3-33.8 64.05-33.8L64.05-33.8Q65.2-33.8 66.52-33.85 67.85-33.9 68.8-33.95L68.8-33.95Q68.8-33.6 68.75-33.13 68.7-32.65 68.55-31.8L68.55-31.8Q67.4-31.7 66.75-31.13 66.1-30.55 65.85-29.23 65.6-27.9 65.6-25.45L65.6-25.45ZM90.64-31.6L80.75-31.6Q78.34-31.6 77.12-30.83 75.89-30.05 75.37-28.7 74.84-27.35 74.5-25.5L74.5-25.5Q73.94-25.5 73.25-25.6 72.55-25.7 72.09-25.95L72.09-25.95Q72.5-28.05 72.69-30.15 72.89-32.25 72.89-33.95L72.89-33.95Q74.3-33.9 76.32-33.85 78.34-33.8 80.72-33.8 83.09-33.8 85.64-33.8L85.64-33.8Q88.19-33.8 90.62-33.8 93.05-33.8 95.09-33.85 97.14-33.9 98.5-33.95L98.5-33.95Q98.44-32.15 98.52-30.25 98.59-28.35 98.8-25.95L98.8-25.95Q98.3-25.7 97.67-25.58 97.05-25.45 96.3-25.5L96.3-25.5Q96.25-28.45 94.92-30.03 93.59-31.6 90.64-31.6L90.64-31.6ZM83.3-6.35L83.3-32.45 88-32.45 88-6.35Q88-4.7 88.3-3.78 88.59-2.85 89.44-2.48 90.3-2.1 91.89-2L91.89-2Q92.05-1.6 92.09-1.07 92.14-0.55 92.14 0.15L92.14 0.15Q90.55 0.05 88.87 0.03 87.19 0 85.59 0L85.59 0Q84.55 0 83.37 0.03 82.19 0.05 81.09 0.08 80 0.1 79.05 0.15L79.05 0.15Q79.05-0.55 79.09-1.07 79.14-1.6 79.3-2L79.3-2Q80.89-2.1 81.77-2.48 82.64-2.85 82.97-3.78 83.3-4.7 83.3-6.35L83.3-6.35ZM124.94 0.45L124.94 0.45Q123.94-1.2 123.29-2.33 122.64-3.45 122.14-4.42 121.64-5.4 120.99-6.55L120.99-6.55Q120.04-8.35 119.14-9.8 118.24-11.25 117.07-12.75 115.89-14.25 114.14-16.05L114.14-16.05 115.44-15.4Q114.14-15.35 113.04-15.35 111.94-15.35 110.94-15.4L110.94-15.4 110.94-17.75Q111.64-17.65 112.24-17.6 112.84-17.55 113.49-17.55L113.49-17.55Q116.24-17.55 118.44-18.32 120.64-19.1 121.94-20.75 123.24-22.4 123.24-25L123.24-25Q123.24-27.95 121.37-29.83 119.49-31.7 114.99-31.7L114.99-31.7Q113.84-31.7 112.94-31.6 112.04-31.5 111.04-31.25L111.04-31.25 111.29-31.8 111.29-6.35Q111.29-4.7 111.59-3.78 111.89-2.85 112.62-2.48 113.34-2.1 114.59-2L114.59-2Q114.74-1.55 114.79-0.98 114.84-0.4 114.84 0.15L114.84 0.15Q113.79 0.05 112.64 0.03 111.49 0 110.52 0 109.54 0 108.89 0L108.89 0Q107.59 0 105.82 0.03 104.04 0.05 102.89 0.15L102.89 0.15Q102.89-0.4 102.94-0.95 102.99-1.5 103.14-2L103.14-2Q104.49-2.1 105.24-2.48 105.99-2.85 106.29-3.78 106.59-4.7 106.59-6.35L106.59-6.35 106.59-27.45Q106.59-29.15 106.29-30.08 105.99-31 105.24-31.4 104.49-31.8 103.14-31.8L103.14-31.8Q102.99-32.3 102.94-32.8 102.89-33.3 102.89-33.9L102.89-33.9Q103.64-33.85 105.39-33.83 107.14-33.8 108.89-33.8L108.89-33.8Q110.94-33.8 113.04-33.85 115.14-33.9 117.24-33.9L117.24-33.9Q121.04-33.9 123.44-32.8 125.84-31.7 126.99-29.8 128.14-27.9 128.14-25.5L128.14-25.5Q128.14-23.2 127.04-21.33 125.94-19.45 123.92-18.18 121.89-16.9 119.09-16.25L119.09-16.25 119.34-16.85Q120.74-15.4 121.72-14.1 122.69-12.8 123.74-11.15 124.79-9.5 126.24-7L126.24-7Q127.29-5.25 128.12-4.23 128.94-3.2 130.04-2.73 131.14-2.25 132.99-2.15L132.99-2.15Q132.99-1.55 132.97-1.05 132.94-0.55 132.79 0L132.79 0Q130.94 0 128.87 0.08 126.79 0.15 124.94 0.45ZM140.79-6.35L140.79-27.45Q140.79-29.15 140.49-30.05 140.19-30.95 139.44-31.35 138.69-31.75 137.34-31.8L137.34-31.8Q137.19-32.2 137.14-32.75 137.09-33.3 137.09-33.95L137.09-33.95Q138.04-33.9 139.02-33.88 139.99-33.85 141.04-33.83 142.09-33.8 143.14-33.8L143.14-33.8Q144.24-33.8 145.24-33.83 146.24-33.85 147.22-33.88 148.19-33.9 149.19-33.95L149.19-33.95Q149.19-33.3 149.14-32.75 149.09-32.2 148.94-31.8L148.94-31.8Q147.64-31.75 146.87-31.35 146.09-30.95 145.79-30.05 145.49-29.15 145.49-27.45L145.49-27.45 145.49-6.35Q145.49-4.7 145.79-3.78 146.09-2.85 146.87-2.48 147.64-2.1 148.94-2L148.94-2Q149.09-1.6 149.14-1.07 149.19-0.55 149.19 0.15L149.19 0.15Q147.69 0.05 146.14 0.03 144.59 0 143.14 0L143.14 0Q141.69 0 140.04 0.03 138.39 0.05 137.09 0.15L137.09 0.15Q137.09-0.55 137.14-1.07 137.19-1.6 137.34-2L137.34-2Q138.69-2.1 139.44-2.48 140.19-2.85 140.49-3.78 140.79-4.7 140.79-6.35L140.79-6.35ZM157.09-33.9L157.09-33.9Q157.84-33.9 159.36-33.88 160.89-33.85 162.71-33.83 164.54-33.8 166.29-33.8 168.04-33.8 169.29-33.8L169.29-33.8Q170.94-33.8 172.46-33.8 173.99-33.8 175.56-33.83 177.14-33.85 178.89-33.9L178.89-33.9Q179.14-33.65 179.29-33.2 179.44-32.75 179.44-32.25L179.44-32.25Q176.34-26.85 173.26-21.63 170.19-16.4 167.06-11.35 163.94-6.3 160.69-1.25L160.69-1.25 160.19-2.1 168.94-2.1Q172.04-2.1 173.76-2.55 175.49-3 176.36-4.35 177.24-5.7 177.79-8.45L177.79-8.45Q179.44-8.3 180.39-7.6L180.39-7.6Q180.14-6.5 179.94-5.2 179.74-3.9 179.64-2.53 179.54-1.15 179.49 0.15L179.49 0.15Q177.04 0.05 174.94 0.03 172.84 0 170.79 0 168.74 0 166.44 0L166.44 0Q162.99 0 159.91 0.03 156.84 0.05 155.29 0.15L155.29 0.15Q155.09-0.25 154.99-0.6 154.89-0.95 154.89-1.45L154.89-1.45Q157.29-5.3 159.64-9.15 161.99-13 164.34-16.85 166.69-20.7 168.99-24.58 171.29-28.45 173.54-32.35L173.54-32.35 174.09-31.8 166.14-31.8Q163.94-31.8 162.56-31.33 161.19-30.85 160.36-29.5 159.54-28.15 158.99-25.4L158.99-25.4Q158.34-25.4 157.49-25.5 156.64-25.6 156.14-25.9L156.14-25.9Q156.59-27.5 156.84-29.7 157.09-31.9 157.09-33.9ZM190.04-6.35L190.04-27.45Q190.04-29.15 189.74-30.05 189.44-30.95 188.69-31.35 187.94-31.75 186.59-31.8L186.59-31.8Q186.44-32.2 186.39-32.75 186.34-33.3 186.34-33.95L186.34-33.95Q187.29-33.9 188.26-33.88 189.24-33.85 190.29-33.83 191.34-33.8 192.39-33.8L192.39-33.8Q193.49-33.8 194.49-33.83 195.49-33.85 196.46-33.88 197.44-33.9 198.44-33.95L198.44-33.95Q198.44-33.3 198.39-32.75 198.34-32.2 198.19-31.8L198.19-31.8Q196.89-31.75 196.11-31.35 195.34-30.95 195.04-30.05 194.74-29.15 194.74-27.45L194.74-27.45 194.74-6.35Q194.74-4.7 195.04-3.78 195.34-2.85 196.11-2.48 196.89-2.1 198.19-2L198.19-2Q198.34-1.6 198.39-1.07 198.44-0.55 198.44 0.15L198.44 0.15Q196.94 0.05 195.39 0.03 193.84 0 192.39 0L192.39 0Q190.94 0 189.29 0.03 187.64 0.05 186.34 0.15L186.34 0.15Q186.34-0.55 186.39-1.07 186.44-1.6 186.59-2L186.59-2Q187.94-2.1 188.69-2.48 189.44-2.85 189.74-3.78 190.04-4.7 190.04-6.35L190.04-6.35ZM219.48 0.45L219.48 0.45Q214.53 0.45 210.83-1.85 207.13-4.15 205.06-8.1 202.98-12.05 202.98-17L202.98-17Q202.98-20.85 204.26-24 205.53-27.15 207.78-29.45 210.03-31.75 213.03-33 216.03-34.25 219.48-34.25L219.48-34.25Q224.28-34.25 228.01-32.08 231.73-29.9 233.88-26.03 236.03-22.15 236.03-17L236.03-17Q236.03-13.3 234.83-10.13 233.63-6.95 231.41-4.58 229.18-2.2 226.16-0.88 223.13 0.45 219.48 0.45ZM220.48-2L220.48-2Q223.73-2 226.06-3.83 228.38-5.65 229.63-8.78 230.88-11.9 230.88-15.7L230.88-15.7Q230.88-20.2 229.26-23.88 227.63-27.55 224.83-29.7 222.03-31.85 218.43-31.85L218.43-31.85Q215.48-31.85 213.16-30.18 210.83-28.5 209.48-25.45 208.13-22.4 208.13-18.35L208.13-18.35Q208.13-15.2 208.93-12.25 209.73-9.3 211.31-7 212.88-4.7 215.18-3.35 217.48-2 220.48-2ZM267.58-7.5L267.48 0.3 244.08-30.25Q243.38-31.15 242.73-31.43 242.08-31.7 240.83-31.8L240.83-31.8Q240.68-32.35 240.63-32.95 240.58-33.55 240.58-33.95L240.58-33.95Q241.08-33.9 241.71-33.88 242.33-33.85 243.01-33.83 243.68-33.8 244.28-33.8L244.28-33.8Q245.23-33.8 246.11-33.85 246.98-33.9 247.63-33.95L247.63-33.95 267.58-7.5ZM240.58 0.15L240.58 0.15Q240.58-0.5 240.63-1.03 240.68-1.55 240.83-2L240.83-2Q242.18-2 242.93-2.65 243.68-3.3 243.98-4.93 244.28-6.55 244.28-9.35L244.28-9.35 244.28-30.5 246.83-30.5 246.83-9.35Q246.83-6.55 247.13-4.93 247.43-3.3 248.18-2.65 248.93-2 250.28-2L250.28-2Q250.43-1.55 250.48-1.05 250.53-0.55 250.53 0.15L250.53 0.15Q249.78 0.1 248.91 0.08 248.03 0.05 247.18 0.03 246.33 0 245.58 0L245.58 0Q244.88 0 243.93 0.03 242.98 0.05 242.11 0.08 241.23 0.1 240.58 0.15ZM267.48 0.3L267.48 0.3 267.08-4.7 267.08-24.7Q267.08-27.45 266.78-28.98 266.48-30.5 265.73-31.15 264.98-31.8 263.63-31.8L263.63-31.8Q263.48-32.65 263.43-33.08 263.38-33.5 263.38-33.95L263.38-33.95Q264.13-33.9 264.93-33.88 265.73-33.85 266.56-33.83 267.38-33.8 268.08-33.8L268.08-33.8Q269.13-33.8 270.48-33.85 271.83-33.9 272.83-33.95L272.83-33.95Q272.83-33.45 272.78-32.9 272.73-32.35 272.58-31.8L272.58-31.8Q271.48-31.8 270.83-31.15 270.18-30.5 269.91-28.98 269.63-27.45 269.63-24.7L269.63-24.7 269.63 0Q269.23 0.15 268.63 0.23 268.03 0.3 267.48 0.3ZM281.38-6.35L281.38-27.45Q281.38-29.15 281.08-30.05 280.78-30.95 280.03-31.35 279.28-31.75 277.93-31.8L277.93-31.8Q277.78-32.2 277.73-32.75 277.68-33.3 277.68-33.95L277.68-33.95Q278.63-33.9 279.6-33.88 280.58-33.85 281.63-33.83 282.68-33.8 283.73-33.8L283.73-33.8Q284.83-33.8 285.83-33.83 286.83-33.85 287.8-33.88 288.78-33.9 289.78-33.95L289.78-33.95Q289.78-33.3 289.73-32.75 289.68-32.2 289.53-31.8L289.53-31.8Q288.23-31.75 287.45-31.35 286.68-30.95 286.38-30.05 286.08-29.15 286.08-27.45L286.08-27.45 286.08-6.35Q286.08-4.7 286.38-3.78 286.68-2.85 287.45-2.48 288.23-2.1 289.53-2L289.53-2Q289.68-1.6 289.73-1.07 289.78-0.55 289.78 0.15L289.78 0.15Q288.28 0.05 286.73 0.03 285.18 0 283.73 0L283.73 0Q282.28 0 280.63 0.03 278.98 0.05 277.68 0.15L277.68 0.15Q277.68-0.55 277.73-1.07 277.78-1.6 277.93-2L277.93-2Q279.28-2.1 280.03-2.48 280.78-2.85 281.08-3.78 281.38-4.7 281.38-6.35L281.38-6.35ZM306.13 0.45L306.13 0.45Q303.03 0.45 300.7-0.43 298.38-1.3 295.98-2.75L295.98-2.75Q296.28-4.65 296.35-6.55 296.43-8.45 296.43-9.85L296.43-9.85Q296.98-10 297.73-10.08 298.48-10.15 299.13-10.15L299.13-10.15Q299.28-7.6 300.05-5.78 300.83-3.95 302.5-2.95 304.18-1.95 306.83-1.95L306.83-1.95Q310.28-1.95 311.75-3.48 313.23-5 313.23-7.15L313.23-7.15Q313.23-9.35 312.03-10.78 310.83-12.2 308.93-13.2 307.03-14.2 304.9-15.15 302.78-16.1 300.88-17.35 298.98-18.6 297.78-20.48 296.58-22.35 296.58-25.25L296.58-25.25Q296.58-28.05 297.8-30.08 299.03-32.1 301.28-33.18 303.53-34.25 306.63-34.25L306.63-34.25Q308.38-34.25 309.95-33.95 311.53-33.65 312.83-33.15 314.13-32.65 314.98-32.05L314.98-32.05Q314.98-30.6 315.03-28.7 315.08-26.8 315.28-25.45L315.28-25.45Q314.73-25.25 313.95-25.13 313.18-25 312.48-25L312.48-25Q311.98-27.9 311.18-29.4 310.38-30.9 309.23-31.48 308.08-32.05 306.58-32.05L306.58-32.05Q303.93-32.05 302.43-30.75 300.93-29.45 300.93-27.1L300.93-27.1Q300.93-24.9 302.13-23.45 303.33-22 305.23-20.95 307.13-19.9 309.23-18.93 311.33-17.95 313.23-16.73 315.13-15.5 316.33-13.7 317.53-11.9 317.53-9.15L317.53-9.15Q317.53-6.65 316.33-4.45 315.13-2.25 312.63-0.9 310.13 0.45 306.13 0.45ZM339.97-31.6L330.07-31.6Q327.67-31.6 326.45-30.83 325.22-30.05 324.7-28.7 324.17-27.35 323.82-25.5L323.82-25.5Q323.27-25.5 322.57-25.6 321.87-25.7 321.42-25.95L321.42-25.95Q321.82-28.05 322.02-30.15 322.22-32.25 322.22-33.95L322.22-33.95Q323.62-33.9 325.65-33.85 327.67-33.8 330.05-33.8 332.42-33.8 334.97-33.8L334.97-33.8Q337.52-33.8 339.95-33.8 342.37-33.8 344.42-33.85 346.47-33.9 347.82-33.95L347.82-33.95Q347.77-32.15 347.85-30.25 347.92-28.35 348.12-25.95L348.12-25.95Q347.62-25.7 347-25.58 346.37-25.45 345.62-25.5L345.62-25.5Q345.57-28.45 344.25-30.03 342.92-31.6 339.97-31.6L339.97-31.6ZM332.62-6.35L332.62-32.45 337.32-32.45 337.32-6.35Q337.32-4.7 337.62-3.78 337.92-2.85 338.77-2.48 339.62-2.1 341.22-2L341.22-2Q341.37-1.6 341.42-1.07 341.47-0.55 341.47 0.15L341.47 0.15Q339.87 0.05 338.2 0.03 336.52 0 334.92 0L334.92 0Q333.87 0 332.7 0.03 331.52 0.05 330.42 0.08 329.32 0.1 328.37 0.15L328.37 0.15Q328.37-0.55 328.42-1.07 328.47-1.6 328.62-2L328.62-2Q330.22-2.1 331.1-2.48 331.97-2.85 332.3-3.78 332.62-4.7 332.62-6.35L332.62-6.35ZM367.32-34.1L367.32-34.1 379.22-6.8Q380.07-4.95 380.62-3.95 381.17-2.95 381.75-2.55 382.32-2.15 383.07-2L383.07-2Q383.27-1.35 383.32-0.9 383.37-0.45 383.37 0.15L383.37 0.15Q382.87 0.1 381.82 0.08 380.77 0.05 379.62 0.03 378.47 0 377.67 0L377.67 0Q377.07 0 376.27 0.03 375.47 0.05 374.62 0.08 373.77 0.1 373.1 0.13 372.42 0.15 372.02 0.15L372.02 0.15Q372.02-0.45 372.1-1 372.17-1.55 372.37-2L372.37-2Q374.42-2.25 374.8-2.93 375.17-3.6 374.17-5.9L374.17-5.9 367.22-22.15Q366.57-23.7 366.07-24.9 365.57-26.1 364.87-27.95L364.87-27.95 365.12-27.95Q364.52-26.05 364.05-24.73 363.57-23.4 363.12-22.2L363.12-22.2 357.42-7.35Q356.32-4.4 356.75-3.28 357.17-2.15 359.22-2L359.22-2Q359.42-1.55 359.5-1 359.57-0.45 359.57 0.15L359.57 0.15Q359.02 0.1 358.22 0.08 357.42 0.05 356.55 0.03 355.67 0 354.82 0L354.82 0Q353.57 0 352.47 0.05 351.37 0.1 350.67 0.15L350.67 0.15Q350.67-0.35 350.75-0.93 350.82-1.5 351.02-1.95L351.02-1.95Q351.92-2.15 352.52-2.65 353.12-3.15 353.7-4.28 354.27-5.4 355.02-7.35L355.02-7.35 365.37-33.9Q365.87-34 366.3-34.05 366.72-34.1 367.32-34.1ZM359.02-13.25L371.87-13.25 372.32-11Q368.97-11 365.15-10.95 361.32-10.9 358.22-10.8L358.22-10.8 359.02-13.25Z" opacity="1" transform="matrix(1,0,0,1,0,0)" fill="#f88552" class="slogan-text-1" data-fill-palette-color="secondary" id="text-1"></path></svg></g></svg></g></svg></g></svg></g><g transform="matrix(1,0,0,1,0,3.765710646162354)"><svg viewBox="0 0 47.411785190593235 78.16977684518925" height="78.16977684518925" width="47.411785190593235"><g><svg xmlns="http://www.w3.org/2000/svg" xmlns:xlink="http://www.w3.org/1999/xlink" version="1.1" x="0" y="0" viewBox="33.941554115680795 23.624999999999957 32.086445884319254 52.90225424859379" enable-background="new 0 0 100 100" xml:space="preserve" height="78.16977684518925" width="47.411785190593235" class="icon-icon-0" data-fill-palette-color="accent" id="icon-0"><path fill-rule="evenodd" clip-rule="evenodd" d="M52.9 35.3c0.3 0.1 0.4 0.1 0.6-0.1 0.1-0.1 0.2-0.1 0.3-0.2 0.1-0.1 0.2-0.1 0.3-0.2 0.1-0.1 0.2-0.1 0.3-0.2 0.1-0.1 0.2-0.1 0.3-0.2 0.1-0.1 0.5-0.4 0.7-0.5 0.1-0.1 0.3-0.3 0.4-0.3 0.1 0 0.2-0.2 0.3-0.2 0.1 0 0.2-0.2 0.3-0.2 0.1 0 0.2-0.2 0.3-0.2 0 0 0.2-0.1 0.2-0.1 0 0 0.1-0.2 0.1-0.2 0.1 0 0.2 0 0.2 0 0 0 0.1-0.2 0.1-0.2 0.1 0 0.2 0 0.2 0 0 0 0.1-0.2 0.1-0.2 0.2-0.1 0.3-0.1 0.5-0.2 0.1 0 0-0.1 0.1-0.1 0 0 0.2-0.1 0.2-0.1 0 0 0.1-0.2 0.1-0.2 0.1 0 0.2 0 0.2 0 0 0 0.1-0.2 0.1-0.2 0.1 0 0.2 0 0.2 0 0 0 0.1-0.2 0.1-0.2 0.1 0 0.2 0 0.2 0 0 0 0.1-0.2 0.1-0.2 0.1 0 0.2 0 0.2 0 0 0 0.1-0.2 0.1-0.2 0.2-0.1 0.4-0.1 0.7-0.3 0 0 0.1-0.1 0.1-0.1 0.1-0.1 0.3 0 0.4-0.1 0 0 0.1-0.2 0.1-0.2 0 0 0.2 0 0.2 0 0.1-0.1 0.1-0.3 0.2-0.3 0.5-0.3 1-0.6 1.4-0.7 1-0.1 1.6 0.5 2.4 1.1 0.1 0.2-0.1 0.4 0 0.6 0.1 0.2 0.1 0.7 0 1.1 0 0 0 0.2 0 0.2-0.1 0.1-0.2 0.3-0.3 0.5 0 0.1 0 0.2-0.1 0.3 0 0.1-0.2 0.1-0.2 0.1-0.2 0.3-0.4 0.5-0.6 0.8-0.2 0.3-0.3 0.6-0.5 0.8-0.3 0.3-0.8 0.4-1.2 0.7-0.1 0.1-0.2 0.3-0.4 0.4-0.1 0.1-0.5 0.3-0.7 0.4-0.1 0 0 0.1-0.1 0.1-0.1 0-0.2 0.2-0.3 0.2-0.1 0-0.3 0.2-0.5 0.3-0.1 0.1-0.1 0.2-0.2 0.2 0 0-0.2 0-0.2 0 0 0-0.1 0.2-0.1 0.2-0.1 0.1-0.2 0-0.3 0.1-0.1 0.1-0.1 0.2-0.2 0.3-0.1 0.1-0.2 0-0.3 0.1-0.2 0.1-0.3 0.4-0.5 0.5-0.1 0.1-0.1 0.1-0.2 0.1-0.1 0-0.2 0.2-0.3 0.3 0 0-0.2 0-0.2 0 0 0-0.1 0.2-0.1 0.2 0 0-0.2 0-0.2 0 0 0-0.1 0.2-0.1 0.2 0 0-0.2 0-0.2 0 0 0-0.1 0.2-0.1 0.2-0.1 0.1-0.2 0-0.3 0.1-0.2 0.1-0.3 0.4-0.5 0.5-0.3 0.3-0.6 0.6-0.9 0.9-0.1 0.2-0.4 0.2-0.4 0.5 0.1 0.4 0.2 0.5 0.5 0.7 0.1 0 0.2 0.1 0.2 0.1 0.1 0.1 0.3 0.3 0.4 0.4 0.1 0.1 0.2 0 0.3 0.1 0.1 0 0.1 0.2 0.1 0.2 0.1 0.1 0.2 0 0.3 0.1 0.1 0 0.1 0.2 0.2 0.2 0.1 0.1 0.3 0.2 0.4 0.3 0.1 0.1 0.2 0 0.3 0.1 0.1 0.1 0.2 0.4 0.4 0.6 0.4 0.1 0.8 0.2 1.1 0.5 0.1 0.1 0.3 0.3 0.4 0.4 0.1 0.1 0.1 0.2 0.2 0.2 0 0 0.2 0 0.2 0 0.1 0.1 0.3 0.2 0.5 0.4 0.1 0.1 0.1 0.2 0.2 0.2 0 0 0.2 0 0.2 0 0.1 0.1 0.3 0.3 0.5 0.4 0.1 0.1 0.1 0.2 0.2 0.2 0 0 0.2 0 0.2 0 0.1 0.1 0.3 0.3 0.5 0.4 0.1 0 0.2 0 0.3 0.1 0.1 0.1 0.3 0.4 0.5 0.6 0.1 0 0.2 0.2 0.2 0.2 0 0 0.2 0 0.2 0 0 0 0 0.1 0 0.1 0.1 0.1 0.2 0 0.3 0.1 0.1 0 0.1 0.2 0.2 0.2 0.1 0.1 0.2 0 0.3 0.1 0.2 0.1 0.3 0.4 0.5 0.6 0.1 0.1 0.3 0.2 0.4 0.3 0.1 0.1 0 0.3 0.1 0.4 0 0 0.2 0.1 0.2 0.1 0 0.1 0 0.2 0 0.2 0 0 0.2 0.1 0.2 0.1 0.1 0.2 0 0.3 0.2 0.4 0.1 0.4-0.1 0.7-0.1 1 0.1 0 0.1 0.1 0.1 0.2 0 0.1 0.2 0.3 0.1 0.6-0.1 0.4-0.8 1-1.2 1.2-0.1 0.3-0.3 0.5-0.5 0.7-0.2 0.1-0.5 0.1-0.7 0.2 0.1 0-0.6 0.3-0.7 0.1-0.1-0.1-0.1-0.1-0.3-0.1 0 0-0.2 0-0.2 0-0.1-0.1-0.9-0.1-1.2-0.2 0 0 0-0.1-0.1-0.1-0.1 0-0.2-0.2-0.4-0.2 0 0-0.3-0.1-0.3-0.1-0.1-0.1-0.2-0.2-0.3-0.3-0.1 0-0.1-0.1-0.2-0.1 0 0-0.3-0.1-0.3-0.1C60 53.3 60 53.1 59.8 53c0 0-0.2-0.1-0.2-0.1-0.1-0.1-0.2-0.2-0.3-0.3 0 0-0.2 0-0.2 0 0 0-0.1-0.2-0.1-0.2 0 0-0.2 0-0.2 0-0.1-0.1-0.1-0.3-0.3-0.3 0 0-0.2-0.1-0.2-0.1-0.1-0.1-0.2-0.2-0.3-0.3-0.1 0-0.1-0.1-0.2-0.1-0.1-0.1-0.3-0.3-0.4-0.3-0.1 0-0.1-0.2-0.2-0.2-0.1 0-0.2 0-0.2 0-0.1-0.1-0.2-0.2-0.3-0.3-0.1 0-0.1-0.1-0.2-0.1 0 0-0.1-0.1-0.1-0.1-0.4-0.2-0.8-0.1-1.1-0.3-0.1 0 0-0.1-0.1-0.1-0.2 0-0.2-0.3-0.4-0.4 0 0-0.2 0-0.2 0-0.1-0.1-0.1-0.2-0.3-0.3-0.1-0.1-0.2-0.1-0.3-0.2-0.1-0.1-0.2-0.1-0.3-0.2-0.1-0.1-0.5-0.4-0.8-0.4-0.2 0.1-0.2 0.2-0.3 0.4-0.1 0.2-0.1 0.4-0.1 0.6-0.1 0.6 0 1.2-0.1 2 0 0.3-0.1 0.7-0.1 1.2 0 0.3 0.1 0.3 0 0.6 0 0.1 0.2 0.9 0 1C52 54.8 52 55.5 52 55.9c0 0.4 0 0.8-0.1 1.2 0 0.4-0.2 0.8-0.2 1.1-0.1 1 0 1.9 0 2.9 0 0.1 0 0.1 0 0.2-0.1 0.6 0 1.8 0 2.7 0 0.3-0.1 0.5-0.1 0.7 0 0.3 0.1 0.6 0.1 0.9 0.1 0.9 0.1 2 0.1 3 0 0.8 0 1.7-0.1 2.4-0.1 0.3 0 0.8-0.1 1.3 0 0.3-0.1 0.6-0.2 0.8-0.2 0.7-0.3 1.7-0.3 2.7-0.1 0.1-0.2 0.1-0.3 0.2 0 0-0.1 0.2-0.1 0.2-0.1 0.1-0.3 0-0.4 0.1-0.2 0.1-0.5 0.3-1 0.2-0.2 0-0.7-0.4-1.1-0.5-0.1 0-0.1 0-0.2 0 0 0-0.3-0.1-0.3-0.1-0.1-0.2-0.3-0.2-0.5-0.4-0.1-0.1-0.3-0.3-0.4-0.4-0.4-0.3-0.6-0.5-0.7-0.8-0.2-0.4-0.1-0.8-0.1-1.3-0.1-1.1-0.1-2.1-0.1-3.4 0 0 0.1 0 0.1-0.1 0 0-0.1 0-0.1-0.1 0-0.1 0-0.2 0-0.3 0-1.3 0-2.6 0.1-4 0-0.2 0.1-0.4 0.1-0.6 0.1-1.9-0.2-4.2 0-6.2 0.1-0.9 0.1-1.7 0.1-2.6 0-1.9-0.2-3.8 0-5.4 0.1-0.9 0.5-1.7 0-2.5-0.4-0.2-0.7 0.3-1 0.3-0.1 0-0.2 0.2-0.3 0.2-0.1 0-0.1 0.1-0.2 0.1-0.1 0-0.1 0.2-0.2 0.2 0 0-0.2 0-0.2 0 0 0 0 0.1 0 0.1-0.1 0-0.2 0-0.3 0.1 0 0-0.1 0.2-0.1 0.2-0.1 0.1-0.2 0-0.3 0.1 0 0-0.1 0.2-0.1 0.2-0.1 0.1-0.2 0-0.3 0.1-0.1 0.1-0.2 0.4-0.4 0.5-0.1 0.1-0.2 0-0.3 0.1 0 0-0.1 0.2-0.1 0.2-0.1 0.1-0.2 0-0.3 0.1-0.1 0.1-0.3 0.4-0.5 0.5-0.1 0.1-0.3 0.2-0.4 0.3-0.1 0.1-0.1 0.2-0.2 0.2 0 0-0.2 0-0.2 0C40.3 51.8 40.3 52 40 52c-0.2 0-0.2 0.3-0.4 0.3-0.1 0-0.1 0.2-0.2 0.2 0 0-0.2 0-0.2 0 0 0 0 0.1 0 0.1-0.3 0.2-0.6 0.1-0.9 0.2 0 0 0 0.1-0.1 0.1-0.2 0-0.8 0.4-1.2 0.3 0 0 0-0.1-0.1-0.1-0.2 0-0.3 0-0.5-0.1-0.1 0-0.3 0-0.4-0.1-0.1-0.1-0.3-0.3-0.4-0.4-0.1-0.1-0.3-0.3-0.4-0.5C35 52 35 52 35 51.8c0-0.1-0.1-0.1-0.1-0.1-0.1-0.4-0.1-1.5 0.2-2 0-0.1 0.1 0 0.1-0.1 0-0.1 0.3-0.4 0.4-0.5 0 0 0.2 0 0.2 0 0.1-0.1 0.1-0.2 0.3-0.3 0.2-0.1 0.6-0.3 0.8-0.5 0.3-0.3 0.4-0.6 0.8-0.8 0.1 0 0.1-0.1 0.2-0.1 0.1-0.1 0.2-0.1 0.3-0.2 0.1-0.1 0.2-0.1 0.3-0.2 0.1-0.1 0.3-0.1 0.3-0.1 0.1-0.1 0.1-0.3 0.3-0.3 0.1 0 0.2-0.2 0.3-0.2 0.1 0 0.2-0.2 0.3-0.2 0.1 0 0.3-0.3 0.5-0.4 0.2-0.2 0.5-0.3 0.8-0.5 0.3-0.2 0.9-0.6 1.4-1 0.1 0 0-0.1 0.1-0.1 0.1 0 0.2-0.2 0.4-0.2 0.1 0 0.2-0.2 0.3-0.2 0.1 0 0.3-0.1 0.4-0.2 0.6-0.4 1.6-0.7 1.1-1.6 0-0.1-0.1 0-0.1-0.1 0-0.2-0.6-0.6-0.8-0.8-0.2-0.2-0.4-0.4-0.6-0.6-0.3-0.2-0.6-0.2-0.8-0.4-0.1-0.3-0.5-0.6-0.7-0.9-0.1-0.1-0.2-0.3-0.3-0.5-0.1-0.1-0.4-0.4-0.6-0.5-0.1-0.1-0.5-0.4-0.7-0.5-0.1 0-0.2 0-0.3-0.1 0 0-0.1-0.2-0.1-0.2-0.1-0.1-0.2-0.1-0.4-0.2-0.1-0.1-0.2-0.1-0.3-0.2-0.1-0.1-0.1-0.1-0.2-0.2-0.2-0.1-0.4-0.3-0.6-0.4 0 0-0.1-0.2-0.1-0.2-0.1-0.1-0.2-0.1-0.4-0.2 0 0-0.1-0.2-0.1-0.2-0.1-0.1-0.2-0.1-0.4-0.2 0 0-0.1-0.2-0.1-0.2-0.1-0.1-0.3-0.1-0.4-0.2-0.1-0.1-0.3-0.3-0.4-0.4-0.1-0.1 0-0.2-0.1-0.3 0 0-0.2 0-0.2-0.1-0.1-0.2-0.2-0.3-0.3-0.5-0.1-0.1-0.3-0.2-0.4-0.3-0.1-0.1 0-0.2-0.1-0.3-0.1-0.1-0.5-0.3-0.6-0.5-0.1-0.1 0-0.2-0.1-0.3 0 0-0.2-0.1-0.2-0.1-0.1-0.1-0.1-0.2-0.1-0.3 0 0-0.1-0.4-0.1-0.4-0.3-0.2-0.1-2.1 0-2.5 0-0.1 0.1 0 0.1-0.1 0-0.1 0.2-0.2 0.3-0.3 0.1-0.1 0.2-0.2 0.4-0.3 0.1 0 0.1-0.1 0.2-0.1 0.1 0 0.4-0.3 0.6-0.3 0.1 0 0.2-0.2 0.3-0.2 0.1 0 0.3-0.2 0.6-0.2 1-0.1 1.7 0.6 2.8 0.4 0.1 0.1 0.2 0.2 0.3 0.3 0.5 0.4 1 1 1.6 1.5 0.3 0.2 0.5 0.5 0.8 0.7 0.1 0.1 0.2 0.1 0.3 0.2 0 0 0.4 0.4 0.5 0.4 0 0 0.2 0.1 0.2 0.1 0 0 0.1 0.2 0.1 0.2 0 0 0.2 0 0.2 0 0.1 0.1 0.1 0.2 0.2 0.3 0 0 0.2 0 0.2 0 0.1 0.1 0.1 0.2 0.3 0.3 0.2 0.1 0.5 0.3 0.7 0.5 0.1 0.1 0.2 0.1 0.3 0.2 0 0 0.1 0.2 0.1 0.2 0 0 0.2 0 0.2 0 0.1 0.1 0.1 0.2 0.2 0.3 0 0 0.2 0 0.2 0 0.1 0.1 0.4 0.5 0.7 0.5 0.4-0.5 0.3-1 0.4-1.7 0.1-1.7-0.1-4.1 0.2-5.7 0-0.2 0.1-0.5 0.2-0.7 0-0.1 0-0.3 0.1-0.4 0-0.1 0.2-0.1 0.2-0.2 0.2-0.3 0.5-0.6 0.8-0.8 0.1-0.1 0.2-0.3 0.3-0.3 0.1-0.1 0.4-0.1 0.6-0.1 0.1 0 0.2-0.2 0.2-0.2 0.1 0 0.2 0 0.3 0 0.3-0.1 0.5-0.1 1.1 0 0.3 0 0.5 0 0.7 0.1 0 0 0 0.1 0.1 0.1 0.1 0 0.9 0.7 0.9 0.9 0 0 0.1 0.1 0.1 0.2 0.1 0.2 0.1 0.3 0.2 0.5 0 0.1 0.1 0.2 0.1 0.3 0.1 0.3 0.3 1.7 0.2 2.4-0.1 0.5-0.1 1.7-0.1 2.6C52.8 32.1 52.8 33.8 52.9 35.3z" fill="#05380c" data-fill-palette-color="accent"></path></svg></g></svg></g></svg></g><defs></defs></svg><rect width="395.5199999999999" height="74.54379260377765" fill="none" stroke="none" visibility="hidden"></rect></g></svg></g></svg>