<svg xmlns="http://www.w3.org/2000/svg" version="1.1" xmlns:xlink="http://www.w3.org/1999/xlink" xmlns:svgjs="http://svgjs.dev/svgjs" width="128" height="128" viewBox="0 0 128 128"><g transform="matrix(0.49282296650717705,0,0,0.49282296650717705,32.41117303103336,12.760752631578946)"><svg viewBox="0 0 58 95" data-background-color="#fff3e1" preserveAspectRatio="xMidYMid meet" height="209" width="128" xmlns="http://www.w3.org/2000/svg" xmlns:xlink="http://www.w3.org/1999/xlink"><g id="tight-bounds" transform="matrix(1,0,0,1,0.04427795189727135,-0.24049999999999727)"><svg viewBox="0 0 57.91144409620544 95.481" height="95.481" width="57.91144409620544"><g><svg viewBox="0 0 57.91144409620544 95.481" height="95.481" width="57.91144409620544"><g><svg viewBox="0 0 57.91144409620544 95.481" height="95.481" width="57.91144409620544"><g id="textblocktransform"><svg viewBox="0 0 57.91144409620544 95.481" height="95.481" width="57.91144409620544" id="textblock"><g><svg viewBox="0 0 57.91144409620544 95.481" height="95.481" width="57.91144409620544"><g><svg viewBox="0 0 57.91144409620544 95.481" height="95.481" width="57.91144409620544"><g><svg xmlns="http://www.w3.org/2000/svg" xmlns:xlink="http://www.w3.org/1999/xlink" version="1.1" x="0" y="0" viewBox="33.941554115680795 23.624999999999957 32.086445884319254 52.90225424859379" enable-background="new 0 0 100 100" xml:space="preserve" height="95.481" width="57.91144409620544" class="icon-icon-0" data-fill-palette-color="accent" id="icon-0"><path fill-rule="evenodd" clip-rule="evenodd" d="M52.9 35.3c0.3 0.1 0.4 0.1 0.6-0.1 0.1-0.1 0.2-0.1 0.3-0.2 0.1-0.1 0.2-0.1 0.3-0.2 0.1-0.1 0.2-0.1 0.3-0.2 0.1-0.1 0.2-0.1 0.3-0.2 0.1-0.1 0.5-0.4 0.7-0.5 0.1-0.1 0.3-0.3 0.4-0.3 0.1 0 0.2-0.2 0.3-0.2 0.1 0 0.2-0.2 0.3-0.2 0.1 0 0.2-0.2 0.3-0.2 0 0 0.2-0.1 0.2-0.1 0 0 0.1-0.2 0.1-0.2 0.1 0 0.2 0 0.2 0 0 0 0.1-0.2 0.1-0.2 0.1 0 0.2 0 0.2 0 0 0 0.1-0.2 0.1-0.2 0.2-0.1 0.3-0.1 0.5-0.2 0.1 0 0-0.1 0.1-0.1 0 0 0.2-0.1 0.2-0.1 0 0 0.1-0.2 0.1-0.2 0.1 0 0.2 0 0.2 0 0 0 0.1-0.2 0.1-0.2 0.1 0 0.2 0 0.2 0 0 0 0.1-0.2 0.1-0.2 0.1 0 0.2 0 0.2 0 0 0 0.1-0.2 0.1-0.2 0.1 0 0.2 0 0.2 0 0 0 0.1-0.2 0.1-0.2 0.2-0.1 0.4-0.1 0.7-0.3 0 0 0.1-0.1 0.1-0.1 0.1-0.1 0.3 0 0.4-0.1 0 0 0.1-0.2 0.1-0.2 0 0 0.2 0 0.2 0 0.1-0.1 0.1-0.3 0.2-0.3 0.5-0.3 1-0.6 1.4-0.7 1-0.1 1.6 0.5 2.4 1.1 0.1 0.2-0.1 0.4 0 0.6 0.1 0.2 0.1 0.7 0 1.1 0 0 0 0.2 0 0.2-0.1 0.1-0.2 0.3-0.3 0.5 0 0.1 0 0.2-0.1 0.3 0 0.1-0.2 0.1-0.2 0.1-0.2 0.3-0.4 0.5-0.6 0.8-0.2 0.3-0.3 0.6-0.5 0.8-0.3 0.3-0.8 0.4-1.2 0.7-0.1 0.1-0.2 0.3-0.4 0.4-0.1 0.1-0.5 0.3-0.7 0.4-0.1 0 0 0.1-0.1 0.1-0.1 0-0.2 0.2-0.3 0.2-0.1 0-0.3 0.2-0.5 0.3-0.1 0.1-0.1 0.2-0.2 0.2 0 0-0.2 0-0.2 0 0 0-0.1 0.2-0.1 0.2-0.1 0.1-0.2 0-0.3 0.1-0.1 0.1-0.1 0.2-0.2 0.3-0.1 0.1-0.2 0-0.3 0.1-0.2 0.1-0.3 0.4-0.5 0.5-0.1 0.1-0.1 0.1-0.2 0.1-0.1 0-0.2 0.2-0.3 0.3 0 0-0.2 0-0.2 0 0 0-0.1 0.2-0.1 0.2 0 0-0.2 0-0.2 0 0 0-0.1 0.2-0.1 0.2 0 0-0.2 0-0.2 0 0 0-0.1 0.2-0.1 0.2-0.1 0.1-0.2 0-0.3 0.1-0.2 0.1-0.3 0.4-0.5 0.5-0.3 0.3-0.6 0.6-0.9 0.9-0.1 0.2-0.4 0.2-0.4 0.5 0.1 0.4 0.2 0.5 0.5 0.7 0.1 0 0.2 0.1 0.2 0.1 0.1 0.1 0.3 0.3 0.4 0.4 0.1 0.1 0.2 0 0.3 0.1 0.1 0 0.1 0.2 0.1 0.2 0.1 0.1 0.2 0 0.3 0.1 0.1 0 0.1 0.2 0.2 0.2 0.1 0.1 0.3 0.2 0.4 0.3 0.1 0.1 0.2 0 0.3 0.1 0.1 0.1 0.2 0.4 0.4 0.6 0.4 0.1 0.8 0.2 1.1 0.5 0.1 0.1 0.3 0.3 0.4 0.4 0.1 0.1 0.1 0.2 0.2 0.2 0 0 0.2 0 0.2 0 0.1 0.1 0.3 0.2 0.5 0.4 0.1 0.1 0.1 0.2 0.2 0.2 0 0 0.2 0 0.2 0 0.1 0.1 0.3 0.3 0.5 0.4 0.1 0.1 0.1 0.2 0.2 0.2 0 0 0.2 0 0.2 0 0.1 0.1 0.3 0.3 0.5 0.4 0.1 0 0.2 0 0.3 0.1 0.1 0.1 0.3 0.4 0.5 0.6 0.1 0 0.2 0.2 0.2 0.2 0 0 0.2 0 0.2 0 0 0 0 0.1 0 0.1 0.1 0.1 0.2 0 0.3 0.1 0.1 0 0.1 0.2 0.2 0.2 0.1 0.1 0.2 0 0.3 0.1 0.2 0.1 0.3 0.4 0.5 0.6 0.1 0.1 0.3 0.2 0.4 0.3 0.1 0.1 0 0.3 0.1 0.4 0 0 0.2 0.1 0.2 0.1 0 0.1 0 0.2 0 0.2 0 0 0.2 0.1 0.2 0.1 0.1 0.2 0 0.3 0.2 0.4 0.1 0.4-0.1 0.7-0.1 1 0.1 0 0.1 0.1 0.1 0.2 0 0.1 0.2 0.3 0.1 0.6-0.1 0.4-0.8 1-1.2 1.2-0.1 0.3-0.3 0.5-0.5 0.7-0.2 0.1-0.5 0.1-0.7 0.2 0.1 0-0.6 0.3-0.7 0.1-0.1-0.1-0.1-0.1-0.3-0.1 0 0-0.2 0-0.2 0-0.1-0.1-0.9-0.1-1.2-0.2 0 0 0-0.1-0.1-0.1-0.1 0-0.2-0.2-0.4-0.2 0 0-0.3-0.1-0.3-0.1-0.1-0.1-0.2-0.2-0.3-0.3-0.1 0-0.1-0.1-0.2-0.1 0 0-0.3-0.1-0.3-0.1C60 53.3 60 53.1 59.8 53c0 0-0.2-0.1-0.2-0.1-0.1-0.1-0.2-0.2-0.3-0.3 0 0-0.2 0-0.2 0 0 0-0.1-0.2-0.1-0.2 0 0-0.2 0-0.2 0-0.1-0.1-0.1-0.3-0.3-0.3 0 0-0.2-0.1-0.2-0.1-0.1-0.1-0.2-0.2-0.3-0.3-0.1 0-0.1-0.1-0.2-0.1-0.1-0.1-0.3-0.3-0.4-0.3-0.1 0-0.1-0.2-0.2-0.2-0.1 0-0.2 0-0.2 0-0.1-0.1-0.2-0.2-0.3-0.3-0.1 0-0.1-0.1-0.2-0.1 0 0-0.1-0.1-0.1-0.1-0.4-0.2-0.8-0.1-1.1-0.3-0.1 0 0-0.1-0.1-0.1-0.2 0-0.2-0.3-0.4-0.4 0 0-0.2 0-0.2 0-0.1-0.1-0.1-0.2-0.3-0.3-0.1-0.1-0.2-0.1-0.3-0.2-0.1-0.1-0.2-0.1-0.3-0.2-0.1-0.1-0.5-0.4-0.8-0.4-0.2 0.1-0.2 0.2-0.3 0.4-0.1 0.2-0.1 0.4-0.1 0.6-0.1 0.6 0 1.2-0.1 2 0 0.3-0.1 0.7-0.1 1.2 0 0.3 0.1 0.3 0 0.6 0 0.1 0.2 0.9 0 1C52 54.8 52 55.5 52 55.9c0 0.4 0 0.8-0.1 1.2 0 0.4-0.2 0.8-0.2 1.1-0.1 1 0 1.9 0 2.9 0 0.1 0 0.1 0 0.2-0.1 0.6 0 1.8 0 2.7 0 0.3-0.1 0.5-0.1 0.7 0 0.3 0.1 0.6 0.1 0.9 0.1 0.9 0.1 2 0.1 3 0 0.8 0 1.7-0.1 2.4-0.1 0.3 0 0.8-0.1 1.3 0 0.3-0.1 0.6-0.2 0.8-0.2 0.7-0.3 1.7-0.3 2.7-0.1 0.1-0.2 0.1-0.3 0.2 0 0-0.1 0.2-0.1 0.2-0.1 0.1-0.3 0-0.4 0.1-0.2 0.1-0.5 0.3-1 0.2-0.2 0-0.7-0.4-1.1-0.5-0.1 0-0.1 0-0.2 0 0 0-0.3-0.1-0.3-0.1-0.1-0.2-0.3-0.2-0.5-0.4-0.1-0.1-0.3-0.3-0.4-0.4-0.4-0.3-0.6-0.5-0.7-0.8-0.2-0.4-0.1-0.8-0.1-1.3-0.1-1.1-0.1-2.1-0.1-3.4 0 0 0.1 0 0.1-0.1 0 0-0.1 0-0.1-0.1 0-0.1 0-0.2 0-0.3 0-1.3 0-2.6 0.1-4 0-0.2 0.1-0.4 0.1-0.6 0.1-1.9-0.2-4.2 0-6.2 0.1-0.9 0.1-1.7 0.1-2.6 0-1.9-0.2-3.8 0-5.4 0.1-0.9 0.5-1.7 0-2.5-0.4-0.2-0.7 0.3-1 0.3-0.1 0-0.2 0.2-0.3 0.2-0.1 0-0.1 0.1-0.2 0.1-0.1 0-0.1 0.2-0.2 0.2 0 0-0.2 0-0.2 0 0 0 0 0.1 0 0.1-0.1 0-0.2 0-0.3 0.1 0 0-0.1 0.2-0.1 0.2-0.1 0.1-0.2 0-0.3 0.1 0 0-0.1 0.2-0.1 0.2-0.1 0.1-0.2 0-0.3 0.1-0.1 0.1-0.2 0.4-0.4 0.5-0.1 0.1-0.2 0-0.3 0.1 0 0-0.1 0.2-0.1 0.2-0.1 0.1-0.2 0-0.3 0.1-0.1 0.1-0.3 0.4-0.5 0.5-0.1 0.1-0.3 0.2-0.4 0.3-0.1 0.1-0.1 0.2-0.2 0.2 0 0-0.2 0-0.2 0C40.3 51.8 40.3 52 40 52c-0.2 0-0.2 0.3-0.4 0.3-0.1 0-0.1 0.2-0.2 0.2 0 0-0.2 0-0.2 0 0 0 0 0.1 0 0.1-0.3 0.2-0.6 0.1-0.9 0.2 0 0 0 0.1-0.1 0.1-0.2 0-0.8 0.4-1.2 0.3 0 0 0-0.1-0.1-0.1-0.2 0-0.3 0-0.5-0.1-0.1 0-0.3 0-0.4-0.1-0.1-0.1-0.3-0.3-0.4-0.4-0.1-0.1-0.3-0.3-0.4-0.5C35 52 35 52 35 51.8c0-0.1-0.1-0.1-0.1-0.1-0.1-0.4-0.1-1.5 0.2-2 0-0.1 0.1 0 0.1-0.1 0-0.1 0.3-0.4 0.4-0.5 0 0 0.2 0 0.2 0 0.1-0.1 0.1-0.2 0.3-0.3 0.2-0.1 0.6-0.3 0.8-0.5 0.3-0.3 0.4-0.6 0.8-0.8 0.1 0 0.1-0.1 0.2-0.1 0.1-0.1 0.2-0.1 0.3-0.2 0.1-0.1 0.2-0.1 0.3-0.2 0.1-0.1 0.3-0.1 0.3-0.1 0.1-0.1 0.1-0.3 0.3-0.3 0.1 0 0.2-0.2 0.3-0.2 0.1 0 0.2-0.2 0.3-0.2 0.1 0 0.3-0.3 0.5-0.4 0.2-0.2 0.5-0.3 0.8-0.5 0.3-0.2 0.9-0.6 1.4-1 0.1 0 0-0.1 0.1-0.1 0.1 0 0.2-0.2 0.4-0.2 0.1 0 0.2-0.2 0.3-0.2 0.1 0 0.3-0.1 0.4-0.2 0.6-0.4 1.6-0.7 1.1-1.6 0-0.1-0.1 0-0.1-0.1 0-0.2-0.6-0.6-0.8-0.8-0.2-0.2-0.4-0.4-0.6-0.6-0.3-0.2-0.6-0.2-0.8-0.4-0.1-0.3-0.5-0.6-0.7-0.9-0.1-0.1-0.2-0.3-0.3-0.5-0.1-0.1-0.4-0.4-0.6-0.5-0.1-0.1-0.5-0.4-0.7-0.5-0.1 0-0.2 0-0.3-0.1 0 0-0.1-0.2-0.1-0.2-0.1-0.1-0.2-0.1-0.4-0.2-0.1-0.1-0.2-0.1-0.3-0.2-0.1-0.1-0.1-0.1-0.2-0.2-0.2-0.1-0.4-0.3-0.6-0.4 0 0-0.1-0.2-0.1-0.2-0.1-0.1-0.2-0.1-0.4-0.2 0 0-0.1-0.2-0.1-0.2-0.1-0.1-0.2-0.1-0.4-0.2 0 0-0.1-0.2-0.1-0.2-0.1-0.1-0.3-0.1-0.4-0.2-0.1-0.1-0.3-0.3-0.4-0.4-0.1-0.1 0-0.2-0.1-0.3 0 0-0.2 0-0.2-0.1-0.1-0.2-0.2-0.3-0.3-0.5-0.1-0.1-0.3-0.2-0.4-0.3-0.1-0.1 0-0.2-0.1-0.3-0.1-0.1-0.5-0.3-0.6-0.5-0.1-0.1 0-0.2-0.1-0.3 0 0-0.2-0.1-0.2-0.1-0.1-0.1-0.1-0.2-0.1-0.3 0 0-0.1-0.4-0.1-0.4-0.3-0.2-0.1-2.1 0-2.5 0-0.1 0.1 0 0.1-0.1 0-0.1 0.2-0.2 0.3-0.3 0.1-0.1 0.2-0.2 0.4-0.3 0.1 0 0.1-0.1 0.2-0.1 0.1 0 0.4-0.3 0.6-0.3 0.1 0 0.2-0.2 0.3-0.2 0.1 0 0.3-0.2 0.6-0.2 1-0.1 1.7 0.6 2.8 0.4 0.1 0.1 0.2 0.2 0.3 0.3 0.5 0.4 1 1 1.6 1.5 0.3 0.2 0.5 0.5 0.8 0.7 0.1 0.1 0.2 0.1 0.3 0.2 0 0 0.4 0.4 0.5 0.4 0 0 0.2 0.1 0.2 0.1 0 0 0.1 0.2 0.1 0.2 0 0 0.2 0 0.2 0 0.1 0.1 0.1 0.2 0.2 0.3 0 0 0.2 0 0.2 0 0.1 0.1 0.1 0.2 0.3 0.3 0.2 0.1 0.5 0.3 0.7 0.5 0.1 0.1 0.2 0.1 0.3 0.2 0 0 0.1 0.2 0.1 0.2 0 0 0.2 0 0.2 0 0.1 0.1 0.1 0.2 0.2 0.3 0 0 0.2 0 0.2 0 0.1 0.1 0.4 0.5 0.7 0.5 0.4-0.5 0.3-1 0.4-1.7 0.1-1.7-0.1-4.1 0.2-5.7 0-0.2 0.1-0.5 0.2-0.7 0-0.1 0-0.3 0.1-0.4 0-0.1 0.2-0.1 0.2-0.2 0.2-0.3 0.5-0.6 0.8-0.8 0.1-0.1 0.2-0.3 0.3-0.3 0.1-0.1 0.4-0.1 0.6-0.1 0.1 0 0.2-0.2 0.2-0.2 0.1 0 0.2 0 0.3 0 0.3-0.1 0.5-0.1 1.1 0 0.3 0 0.5 0 0.7 0.1 0 0 0 0.1 0.1 0.1 0.1 0 0.9 0.7 0.9 0.9 0 0 0.1 0.1 0.1 0.2 0.1 0.2 0.1 0.3 0.2 0.5 0 0.1 0.1 0.2 0.1 0.3 0.1 0.3 0.3 1.7 0.2 2.4-0.1 0.5-0.1 1.7-0.1 2.6C52.8 32.1 52.8 33.8 52.9 35.3z" fill="#05380c" data-fill-palette-color="accent"></path></svg></g></svg></g></svg></g></svg></g></svg></g></svg></g><defs></defs></svg><rect width="57.91144409620544" height="95.481" fill="none" stroke="none" visibility="hidden"></rect></g></svg></g></svg>