<svg xmlns="http://www.w3.org/2000/svg" version="1.1" xmlns:xlink="http://www.w3.org/1999/xlink" xmlns:svgjs="http://svgjs.dev/svgjs" width="2000" height="732" viewBox="0 0 2000 732"><g transform="matrix(1,0,0,1,-1.2121212121213603,1.1575079845961795)"><svg viewBox="0 0 396 145" data-background-color="#fff3e1" preserveAspectRatio="xMidYMid meet" height="732" width="2000" xmlns="http://www.w3.org/2000/svg" xmlns:xlink="http://www.w3.org/1999/xlink"><g id="tight-bounds" transform="matrix(1,0,0,1,0.24000000000003752,-0.22928778383393933)"><svg viewBox="0 0 395.5199999999999 145.45857556766788" height="145.45857556766788" width="395.5199999999999"><g><svg viewBox="0 0 523.3945171736058 192.48639999999997" height="145.45857556766788" width="395.5199999999999"><g transform="matrix(1,0,0,1,127.87451717360575,0)"><svg viewBox="0 0 395.52 192.48639999999997" height="192.48639999999997" width="395.52"><g id="textblocktransform"><svg viewBox="0 0 395.52 192.48639999999997" height="192.48639999999997" width="395.52" id="textblock"><g><svg viewBox="0 0 395.52 192.48639999999997" height="192.48639999999997" width="395.52"><g transform="matrix(1,0,0,1,0,0)"><svg width="395.52" viewBox="1.7500000000000018 -35.84999999999999 209.99999999999997 87.39999999999999" height="192.48639999999997" data-palette-color="#2a2325"><svg></svg><svg></svg><g class="wordmark-text-0" data-fill-palette-color="primary" id="text-0"><path d="M2.6 0.15v0c0-0.533 0.017-1 0.05-1.4 0.033-0.4 0.1-0.733 0.2-1v0c0.9-0.067 1.6-0.233 2.1-0.5 0.5-0.267 0.85-0.717 1.05-1.35 0.2-0.633 0.3-1.533 0.3-2.7v0-20.2c0-1.2-0.1-2.11-0.3-2.73-0.2-0.613-0.54-1.053-1.02-1.32-0.487-0.267-1.18-0.433-2.08-0.5v0c-0.133-0.3-0.217-0.65-0.25-1.05-0.033-0.4-0.05-0.85-0.05-1.35v0c0.6 0.033 1.29 0.057 2.07 0.07 0.787 0.02 1.613 0.037 2.48 0.05 0.867 0.02 1.7 0.03 2.5 0.03 0.8 0 1.517 0 2.15 0v0 26.05c0 1.433 0.16 2.533 0.48 3.3 0.313 0.767 0.813 1.3 1.5 1.6 0.68 0.3 1.57 0.5 2.67 0.6v0c0.1 0.3 0.167 0.65 0.2 1.05 0.033 0.4 0.05 0.85 0.05 1.35v0c-0.5-0.033-1.123-0.057-1.87-0.07-0.753-0.02-1.553-0.037-2.4-0.05-0.853-0.02-1.697-0.03-2.53-0.03v0c-1.267 0-2.617 0.01-4.05 0.03-1.433 0.013-2.517 0.053-3.25 0.12zM23-10.1v0c-0.5 0-0.957-0.017-1.37-0.05-0.42-0.033-0.83-0.117-1.23-0.25v0c-0.133-1.667-0.577-2.8-1.33-3.4-0.747-0.6-2.103-0.9-4.07-0.9v0h-3.5v-2.4h3.5c2 0 3.377-0.267 4.13-0.8 0.747-0.533 1.137-1.583 1.17-3.15v0c0.433-0.133 0.877-0.233 1.33-0.3 0.447-0.067 0.903-0.1 1.37-0.1v0c-0.033 0.833-0.057 1.733-0.07 2.7-0.02 0.967-0.03 1.9-0.03 2.8v0c0 0.967 0.01 1.973 0.03 3.02 0.013 1.053 0.037 1.997 0.07 2.83zM24.05-25.25v0c-0.1-1.067-0.383-2.077-0.85-3.03-0.467-0.947-1.257-1.73-2.37-2.35-1.12-0.613-2.713-0.92-4.78-0.92v0h-5.65l1.2-2.25c2.667 0 4.927-0.01 6.78-0.03 1.847-0.013 3.38-0.037 4.6-0.07 1.213-0.033 2.103-0.05 2.67-0.05v0c0.067 0.733 0.15 1.6 0.25 2.6 0.1 1 0.217 1.973 0.35 2.92 0.133 0.953 0.283 1.797 0.45 2.53v0c-0.3 0.233-0.673 0.4-1.12 0.5-0.453 0.1-0.963 0.15-1.53 0.15zM30.3 0.15v0c0-0.4 0.027-0.817 0.08-1.25 0.047-0.433 0.12-0.817 0.22-1.15v0c1.333-0.033 2.233-0.35 2.7-0.95 0.467-0.6 0.7-1.733 0.7-3.4v0-9.35c0-0.8-0.077-1.46-0.23-1.98-0.147-0.513-0.487-0.903-1.02-1.17-0.533-0.267-1.367-0.4-2.5-0.4v0c0-0.4 0.043-0.783 0.13-1.15 0.08-0.367 0.203-0.7 0.37-1v0c0.667 0 1.5-0.083 2.5-0.25 1-0.167 1.95-0.383 2.85-0.65 0.9-0.267 1.567-0.533 2-0.8v0c0.333 0.133 0.617 0.367 0.85 0.7 0.233 0.333 0.35 0.833 0.35 1.5v0 14.55c0 1.667 0.227 2.8 0.68 3.4 0.447 0.6 1.22 0.917 2.32 0.95v0c0.1 0.333 0.167 0.733 0.2 1.2 0.033 0.467 0.05 0.867 0.05 1.2v0c-0.533-0.033-1.133-0.057-1.8-0.07-0.667-0.02-1.367-0.037-2.1-0.05-0.733-0.02-1.45-0.03-2.15-0.03v0c-0.733 0-1.477 0.01-2.23 0.03-0.747 0.013-1.46 0.03-2.14 0.05-0.687 0.013-1.297 0.037-1.83 0.07zM36.2-28.5v0c-0.967 0-1.757-0.293-2.37-0.88-0.62-0.58-0.93-1.303-0.93-2.17v0c0-1 0.333-1.8 1-2.4 0.667-0.6 1.45-0.9 2.35-0.9v0c1.033 0 1.85 0.3 2.45 0.9 0.6 0.6 0.9 1.383 0.9 2.35v0c0 0.833-0.323 1.557-0.97 2.17-0.653 0.62-1.463 0.93-2.43 0.93zM46 0.15v0c0-0.4 0.017-0.817 0.05-1.25 0.033-0.433 0.1-0.817 0.2-1.15v0c1.333-0.033 2.24-0.35 2.72-0.95 0.487-0.6 0.73-1.733 0.73-3.4v0-21.95c0-0.767-0.083-1.4-0.25-1.9-0.167-0.5-0.517-0.883-1.05-1.15-0.533-0.267-1.35-0.4-2.45-0.4v0c0-0.4 0.033-0.783 0.1-1.15 0.067-0.367 0.183-0.7 0.35-1v0c0.7 0 1.55-0.083 2.55-0.25 1-0.167 1.94-0.383 2.82-0.65 0.887-0.267 1.547-0.533 1.98-0.8v0c0.333 0.133 0.617 0.367 0.85 0.7 0.233 0.333 0.35 0.833 0.35 1.5v0 27.05c0 1.667 0.227 2.8 0.68 3.4 0.447 0.6 1.22 0.917 2.32 0.95v0c0.1 0.333 0.173 0.733 0.22 1.2 0.053 0.467 0.08 0.867 0.08 1.2v0c-0.567-0.033-1.183-0.057-1.85-0.07-0.667-0.02-1.367-0.037-2.1-0.05-0.733-0.02-1.45-0.03-2.15-0.03v0c-0.7 0-1.433 0.01-2.2 0.03-0.767 0.013-1.483 0.03-2.15 0.05-0.667 0.013-1.267 0.037-1.8 0.07zM61.65 0.15v0c0-0.4 0.023-0.817 0.07-1.25 0.053-0.433 0.13-0.817 0.23-1.15v0c1.333-0.033 2.233-0.35 2.7-0.95 0.467-0.6 0.7-1.733 0.7-3.4v0-9.35c0-0.8-0.073-1.46-0.22-1.98-0.153-0.513-0.497-0.903-1.03-1.17-0.533-0.267-1.367-0.4-2.5-0.4v0c0-0.4 0.04-0.783 0.12-1.15 0.087-0.367 0.213-0.7 0.38-1v0c0.667 0 1.5-0.083 2.5-0.25 1-0.167 1.95-0.383 2.85-0.65 0.9-0.267 1.567-0.533 2-0.8v0c0.333 0.133 0.617 0.367 0.85 0.7 0.233 0.333 0.35 0.833 0.35 1.5v0 14.55c0 1.667 0.223 2.8 0.67 3.4 0.453 0.6 1.23 0.917 2.33 0.95v0c0.1 0.333 0.167 0.733 0.2 1.2 0.033 0.467 0.05 0.867 0.05 1.2v0c-0.533-0.033-1.133-0.057-1.8-0.07-0.667-0.02-1.367-0.037-2.1-0.05-0.733-0.02-1.45-0.03-2.15-0.03v0c-0.733 0-1.473 0.01-2.22 0.03-0.753 0.013-1.473 0.03-2.16 0.05-0.68 0.013-1.287 0.037-1.82 0.07zM67.55-28.5v0c-0.967 0-1.76-0.293-2.38-0.88-0.613-0.58-0.92-1.303-0.92-2.17v0c0-1 0.333-1.8 1-2.4 0.667-0.6 1.45-0.9 2.35-0.9v0c1.033 0 1.85 0.3 2.45 0.9 0.6 0.6 0.9 1.383 0.9 2.35v0c0 0.833-0.327 1.557-0.98 2.17-0.647 0.62-1.453 0.93-2.42 0.93zM77.45 12.25v0c0-0.533 0.017-1 0.05-1.4 0.033-0.4 0.117-0.733 0.25-1v0c0.9-0.067 1.59-0.233 2.07-0.5 0.487-0.267 0.83-0.717 1.03-1.35 0.2-0.633 0.3-1.533 0.3-2.7v0-21.1c0-0.867-0.077-1.56-0.23-2.08-0.147-0.513-0.487-0.903-1.02-1.17-0.533-0.267-1.35-0.417-2.45-0.45v0c0-0.4 0.033-0.783 0.1-1.15 0.067-0.367 0.183-0.7 0.35-1v0c1.267-0.067 2.617-0.267 4.05-0.6 1.433-0.333 2.533-0.7 3.3-1.1v0c0.333 0.133 0.617 0.367 0.85 0.7 0.233 0.333 0.35 0.883 0.35 1.65v0c0 0.667-0.107 1.333-0.32 2-0.22 0.667-0.497 1.517-0.83 2.55v0l1.15 1v19.8c0 1.433 0.15 2.533 0.45 3.3 0.3 0.767 0.793 1.3 1.48 1.6 0.68 0.3 1.57 0.5 2.67 0.6v0c0.1 0.3 0.173 0.65 0.22 1.05 0.053 0.4 0.08 0.85 0.08 1.35v0c-0.533-0.033-1.167-0.057-1.9-0.07-0.733-0.02-1.517-0.037-2.35-0.05-0.833-0.02-1.667-0.03-2.5-0.03v0c-1.267 0-2.583 0.01-3.95 0.03-1.367 0.013-2.433 0.053-3.2 0.12zM90.45 0.45v0c-0.9 0-1.693-0.073-2.38-0.22-0.68-0.153-1.437-0.363-2.27-0.63v0-4.05c0.633 0.7 1.327 1.273 2.08 1.72 0.747 0.453 1.67 0.68 2.77 0.68v0c0.667 0 1.39-0.133 2.17-0.4 0.787-0.267 1.547-0.743 2.28-1.43 0.733-0.68 1.333-1.647 1.8-2.9 0.467-1.247 0.7-2.87 0.7-4.87v0c0-1.633-0.227-3.077-0.68-4.33-0.447-1.247-1.07-2.22-1.87-2.92-0.8-0.7-1.733-1.05-2.8-1.05v0c-0.933 0-1.85 0.3-2.75 0.9-0.9 0.6-1.633 1.573-2.2 2.92-0.567 1.353-0.85 3.163-0.85 5.43v0l-1.6-5.25c0.467-1.133 0.873-2.007 1.22-2.62 0.353-0.62 0.663-1.063 0.93-1.33v0c0.3-0.5 0.773-1.017 1.42-1.55 0.653-0.533 1.437-0.983 2.35-1.35 0.92-0.367 1.913-0.55 2.98-0.55v0c1.967 0 3.65 0.373 5.05 1.12 1.4 0.753 2.49 1.913 3.27 3.48 0.787 1.567 1.18 3.55 1.18 5.95v0c0 2.533-0.533 4.8-1.6 6.8-1.067 2-2.56 3.573-4.48 4.72-1.913 1.153-4.153 1.73-6.72 1.73zM106.95 12.25v0c0-0.533 0.017-1 0.05-1.4 0.033-0.4 0.117-0.733 0.25-1v0c0.9-0.067 1.59-0.233 2.07-0.5 0.487-0.267 0.83-0.717 1.03-1.35 0.2-0.633 0.3-1.533 0.3-2.7v0-21.1c0-0.867-0.077-1.56-0.23-2.08-0.147-0.513-0.487-0.903-1.02-1.17-0.533-0.267-1.35-0.417-2.45-0.45v0c0-0.4 0.033-0.783 0.1-1.15 0.067-0.367 0.183-0.7 0.35-1v0c1.267-0.067 2.617-0.267 4.05-0.6 1.433-0.333 2.533-0.7 3.3-1.1v0c0.333 0.133 0.617 0.367 0.85 0.7 0.233 0.333 0.35 0.883 0.35 1.65v0c0 0.667-0.107 1.333-0.32 2-0.22 0.667-0.497 1.517-0.83 2.55v0l1.15 1v19.8c0 1.433 0.15 2.533 0.45 3.3 0.3 0.767 0.793 1.3 1.48 1.6 0.68 0.3 1.57 0.5 2.67 0.6v0c0.1 0.3 0.173 0.65 0.22 1.05 0.053 0.4 0.08 0.85 0.08 1.35v0c-0.533-0.033-1.167-0.057-1.9-0.07-0.733-0.02-1.517-0.037-2.35-0.05-0.833-0.02-1.667-0.03-2.5-0.03v0c-1.267 0-2.583 0.01-3.95 0.03-1.367 0.013-2.433 0.053-3.2 0.12zM119.95 0.45v0c-0.9 0-1.693-0.073-2.38-0.22-0.68-0.153-1.437-0.363-2.27-0.63v0-4.05c0.633 0.7 1.327 1.273 2.08 1.72 0.747 0.453 1.67 0.68 2.77 0.68v0c0.667 0 1.39-0.133 2.17-0.4 0.787-0.267 1.547-0.743 2.28-1.43 0.733-0.68 1.333-1.647 1.8-2.9 0.467-1.247 0.7-2.87 0.7-4.87v0c0-1.633-0.227-3.077-0.68-4.33-0.447-1.247-1.07-2.22-1.87-2.92-0.8-0.7-1.733-1.05-2.8-1.05v0c-0.933 0-1.85 0.3-2.75 0.9-0.9 0.6-1.633 1.573-2.2 2.92-0.567 1.353-0.85 3.163-0.85 5.43v0l-1.6-5.25c0.467-1.133 0.873-2.007 1.22-2.62 0.353-0.62 0.663-1.063 0.93-1.33v0c0.3-0.5 0.773-1.017 1.42-1.55 0.653-0.533 1.437-0.983 2.35-1.35 0.92-0.367 1.913-0.55 2.98-0.55v0c1.967 0 3.65 0.373 5.05 1.12 1.4 0.753 2.49 1.913 3.27 3.48 0.787 1.567 1.18 3.55 1.18 5.95v0c0 2.533-0.533 4.8-1.6 6.8-1.067 2-2.56 3.573-4.48 4.72-1.913 1.153-4.153 1.73-6.72 1.73zM148.2 0.45v0c-2.367 0-4.427-0.493-6.18-1.48-1.747-0.98-3.097-2.353-4.05-4.12-0.947-1.767-1.42-3.85-1.42-6.25v0c0-2.333 0.507-4.4 1.52-6.2 1.02-1.8 2.413-3.21 4.18-4.23 1.767-1.013 3.767-1.52 6-1.52v0c2.5 0 4.617 0.5 6.35 1.5 1.733 1 3.05 2.383 3.95 4.15 0.9 1.767 1.35 3.833 1.35 6.2v0c0 2.3-0.483 4.357-1.45 6.17-0.967 1.82-2.327 3.24-4.08 4.26-1.747 1.013-3.803 1.52-6.17 1.52zM148.7-2.2v0c1.867 0 3.25-0.793 4.15-2.38 0.9-1.58 1.35-3.637 1.35-6.17v0c0-2.067-0.293-3.86-0.88-5.38-0.58-1.513-1.363-2.663-2.35-3.45-0.98-0.78-2.053-1.17-3.22-1.17v0c-1.833 0-3.2 0.767-4.1 2.3-0.9 1.533-1.35 3.5-1.35 5.9v0c0 2.133 0.257 3.983 0.77 5.55 0.52 1.567 1.263 2.757 2.23 3.57 0.967 0.82 2.1 1.23 3.4 1.23z" fill="#2a2325" fill-rule="nonzero" stroke="none" stroke-width="1" stroke-linecap="butt" stroke-linejoin="miter" stroke-miterlimit="10" stroke-dasharray="" stroke-dashoffset="0" font-family="none" font-weight="none" font-size="none" text-anchor="none" style="mix-blend-mode: normal" data-fill-palette-color="primary" opacity="1"></path><path transform="translate(0,51.1)" d="M17.85 0.45v0c-3.167 0-5.95-0.743-8.35-2.23-2.4-1.48-4.29-3.547-5.67-6.2-1.387-2.647-2.08-5.703-2.08-9.17v0c0-2.867 0.467-5.367 1.4-7.5 0.933-2.133 2.193-3.917 3.78-5.35 1.58-1.433 3.37-2.5 5.37-3.2 2-0.7 4.083-1.05 6.25-1.05v0c2.033 0 3.933 0.217 5.7 0.65 1.767 0.433 3.55 1.083 5.35 1.95v0c-0.233 1.167-0.383 2.407-0.45 3.72-0.067 1.32-0.1 2.663-0.1 4.03v0c-0.433 0.167-0.9 0.29-1.4 0.37-0.5 0.087-1.033 0.13-1.6 0.13v0c-0.067-2.267-0.4-4.017-1-5.25-0.6-1.233-1.423-2.083-2.47-2.55-1.053-0.467-2.28-0.7-3.68-0.7v0c-1.967 0-3.657 0.373-5.07 1.12-1.42 0.753-2.57 1.753-3.45 3-0.887 1.253-1.537 2.68-1.95 4.28-0.42 1.6-0.63 3.267-0.63 5v0c0 2.933 0.473 5.583 1.42 7.95 0.953 2.367 2.347 4.24 4.18 5.62 1.833 1.387 4.067 2.08 6.7 2.08v0c1.533 0 3.1-0.25 4.7-0.75 1.6-0.5 3.083-1.183 4.45-2.05v0c0.233 0.167 0.443 0.423 0.63 0.77 0.18 0.353 0.303 0.663 0.37 0.93v0c-1.867 1.467-3.757 2.567-5.67 3.3-1.92 0.733-4.163 1.1-6.73 1.1zM43.3-11.35v3.6c0 1.433 0.15 2.533 0.45 3.3 0.3 0.767 0.793 1.3 1.48 1.6 0.68 0.3 1.57 0.5 2.67 0.6v0c0.1 0.3 0.177 0.65 0.23 1.05 0.047 0.4 0.07 0.85 0.07 1.35v0c-0.533-0.033-1.167-0.057-1.9-0.07-0.733-0.02-1.517-0.037-2.35-0.05-0.833-0.02-1.667-0.03-2.5-0.03v0c-1.267 0-2.583 0.01-3.95 0.03-1.367 0.013-2.433 0.053-3.2 0.12v0c0-0.533 0.017-1 0.05-1.4 0.033-0.4 0.117-0.733 0.25-1v0c0.9-0.067 1.59-0.233 2.07-0.5 0.487-0.267 0.83-0.717 1.03-1.35 0.2-0.633 0.3-1.533 0.3-2.7v0-4.55zM42.4-15.3l0.9 0.65v4.05h-5.3v-5.55l5.3-4.85c0 1.033-0.1 2-0.3 2.9-0.2 0.9-0.4 1.833-0.6 2.8zM43.3-11.9l-1.1-3.1c0.333-0.9 0.607-1.673 0.82-2.32 0.22-0.653 0.447-1.18 0.68-1.58v0c0.733-1.167 1.61-2.133 2.63-2.9 1.013-0.767 2.187-1.15 3.52-1.15v0c1.267 0 2.417 0.4 3.45 1.2v0c-0.067 0.567-0.133 1.223-0.2 1.97-0.067 0.753-0.107 1.503-0.12 2.25-0.02 0.753-0.03 1.447-0.03 2.08v0c-0.367 0.133-0.85 0.25-1.45 0.35-0.6 0.1-1.2 0.15-1.8 0.15v0c-0.067-1.5-0.307-2.51-0.72-3.03-0.42-0.513-0.963-0.77-1.63-0.77v0c-0.533 0-1.123 0.317-1.77 0.95-0.653 0.633-1.197 1.467-1.63 2.5-0.433 1.033-0.65 2.167-0.65 3.4zM43.3-21l-5.3 10.4v-5.2c0-0.867-0.077-1.56-0.23-2.08-0.147-0.513-0.487-0.903-1.02-1.17-0.533-0.267-1.35-0.417-2.45-0.45v0c0-0.4 0.033-0.783 0.1-1.15 0.067-0.367 0.183-0.7 0.35-1v0c1.267-0.067 2.617-0.267 4.05-0.6 1.433-0.333 2.533-0.7 3.3-1.1v0c0.333 0.133 0.617 0.367 0.85 0.7 0.233 0.333 0.35 0.883 0.35 1.65zM56.1 0.15v0c0-0.4 0.023-0.817 0.07-1.25 0.053-0.433 0.13-0.817 0.23-1.15v0c1.333-0.033 2.233-0.35 2.7-0.95 0.467-0.6 0.7-1.733 0.7-3.4v0-9.35c0-0.8-0.077-1.46-0.23-1.98-0.147-0.513-0.487-0.903-1.02-1.17-0.533-0.267-1.367-0.4-2.5-0.4v0c0-0.4 0.04-0.783 0.12-1.15 0.087-0.367 0.213-0.7 0.38-1v0c0.667 0 1.5-0.083 2.5-0.25 1-0.167 1.95-0.383 2.85-0.65 0.9-0.267 1.567-0.533 2-0.8v0c0.333 0.133 0.617 0.367 0.85 0.7 0.233 0.333 0.35 0.833 0.35 1.5v0 14.55c0 1.667 0.227 2.8 0.68 3.4 0.447 0.6 1.22 0.917 2.32 0.95v0c0.1 0.333 0.167 0.733 0.2 1.2 0.033 0.467 0.05 0.867 0.05 1.2v0c-0.533-0.033-1.133-0.057-1.8-0.07-0.667-0.02-1.367-0.037-2.1-0.05-0.733-0.02-1.45-0.03-2.15-0.03v0c-0.733 0-1.477 0.01-2.23 0.03-0.747 0.013-1.463 0.03-2.15 0.05-0.68 0.013-1.287 0.037-1.82 0.07zM62-28.5v0c-0.967 0-1.757-0.293-2.37-0.88-0.62-0.58-0.93-1.303-0.93-2.17v0c0-1 0.333-1.8 1-2.4 0.667-0.6 1.45-0.9 2.35-0.9v0c1.033 0 1.85 0.3 2.45 0.9 0.6 0.6 0.9 1.383 0.9 2.35v0c0 0.833-0.327 1.557-0.98 2.17-0.647 0.62-1.453 0.93-2.42 0.93zM88.35-21.65v0c-0.033 0.833-0.05 1.7-0.05 2.6 0 0.9 0.067 1.783 0.2 2.65v0c-0.367 0.2-0.81 0.357-1.33 0.47-0.513 0.12-1.037 0.18-1.57 0.18v0c-0.067-0.9-0.327-1.75-0.78-2.55-0.447-0.8-1.053-1.45-1.82-1.95-0.767-0.5-1.683-0.75-2.75-0.75v0c-0.967 0-1.733 0.233-2.3 0.7-0.567 0.467-0.85 1.083-0.85 1.85v0c0 0.533 0.117 1.007 0.35 1.42 0.233 0.42 0.767 0.87 1.6 1.35 0.833 0.487 2.117 1.08 3.85 1.78v0c1.833 0.667 3.267 1.34 4.3 2.02 1.033 0.687 1.773 1.437 2.22 2.25 0.453 0.82 0.68 1.83 0.68 3.03v0c0 1.4-0.407 2.633-1.22 3.7-0.82 1.067-1.957 1.89-3.41 2.47-1.447 0.587-3.087 0.88-4.92 0.88v0c-2.033 0-3.66-0.16-4.88-0.48-1.213-0.313-2.42-0.753-3.62-1.32v0c0.1-0.567 0.157-1.233 0.17-2 0.02-0.767 0.03-1.527 0.03-2.28 0-0.747-0.033-1.387-0.1-1.92v0c0.3-0.233 0.733-0.4 1.3-0.5 0.567-0.1 1.117-0.15 1.65-0.15v0c0.267 2.033 0.89 3.55 1.87 4.55 0.987 1 2.297 1.5 3.93 1.5v0c1.233 0 2.207-0.277 2.92-0.83 0.72-0.547 1.08-1.27 1.08-2.17v0c0-0.567-0.143-1.067-0.43-1.5-0.28-0.433-0.787-0.86-1.52-1.28-0.733-0.413-1.833-0.903-3.3-1.47v0c-1.733-0.7-3.143-1.367-4.23-2-1.08-0.633-1.87-1.393-2.37-2.28-0.5-0.88-0.75-2.003-0.75-3.37v0c0-1.067 0.267-2 0.8-2.8 0.533-0.8 1.223-1.46 2.07-1.98 0.853-0.513 1.787-0.897 2.8-1.15 1.02-0.247 1.997-0.37 2.93-0.37v0c1.6 0 2.983 0.14 4.15 0.42 1.167 0.287 2.267 0.713 3.3 1.28zM102.65 0.45v0c-2.067 0-3.607-0.533-4.62-1.6-1.02-1.067-1.53-2.817-1.53-5.25v0-12.9c-0.5-0.167-1.027-0.31-1.58-0.43-0.547-0.113-1.22-0.187-2.02-0.22v0c0-0.467 0.033-0.883 0.1-1.25 0.067-0.367 0.183-0.767 0.35-1.2v0h3.15v-6.45c0.8-0.167 1.593-0.45 2.38-0.85 0.78-0.4 1.437-0.833 1.97-1.3v0c0.367 0.133 0.617 0.35 0.75 0.65 0.133 0.3 0.2 1 0.2 2.1v0 5.85h6.4c0 0.4-0.033 0.817-0.1 1.25-0.067 0.433-0.183 0.85-0.35 1.25v0c-1.2 0-2.293 0.067-3.28 0.2-0.98 0.133-1.87 0.283-2.67 0.45v0 11.85c0 1.167 0.11 2.107 0.33 2.82 0.213 0.72 0.53 1.247 0.95 1.58 0.413 0.333 0.92 0.5 1.52 0.5v0c0.667 0 1.26-0.093 1.78-0.28 0.513-0.18 1.003-0.453 1.47-0.82v0c0.433 0.533 0.683 1.167 0.75 1.9v0c-0.567 0.6-1.417 1.107-2.55 1.52-1.133 0.42-2.267 0.63-3.4 0.63zM123.45 0.45v0c-2.367 0-4.423-0.493-6.17-1.48-1.753-0.98-3.103-2.353-4.05-4.12-0.953-1.767-1.43-3.85-1.43-6.25v0c0-2.333 0.51-4.4 1.53-6.2 1.013-1.8 2.403-3.21 4.17-4.23 1.767-1.013 3.767-1.52 6-1.52v0c2.5 0 4.617 0.5 6.35 1.5 1.733 1 3.05 2.383 3.95 4.15 0.9 1.767 1.35 3.833 1.35 6.2v0c0 2.3-0.483 4.357-1.45 6.17-0.967 1.82-2.323 3.24-4.07 4.26-1.753 1.013-3.813 1.52-6.18 1.52zM123.95-2.2v0c1.867 0 3.25-0.793 4.15-2.38 0.9-1.58 1.35-3.637 1.35-6.17v0c0-2.067-0.29-3.86-0.87-5.38-0.587-1.513-1.37-2.663-2.35-3.45-0.987-0.78-2.063-1.17-3.23-1.17v0c-1.833 0-3.2 0.767-4.1 2.3-0.9 1.533-1.35 3.5-1.35 5.9v0c0 2.133 0.26 3.983 0.78 5.55 0.513 1.567 1.253 2.757 2.22 3.57 0.967 0.82 2.1 1.23 3.4 1.23zM147.65-22.4h5.65c0 0.4-0.033 0.833-0.1 1.3-0.067 0.467-0.2 0.883-0.4 1.25v0c-0.967 0-1.873 0.057-2.72 0.17-0.853 0.12-1.663 0.297-2.43 0.53v0zM142.8-10.4v-13.9c0-2.533 0.51-4.65 1.53-6.35 1.013-1.7 2.347-2.967 4-3.8 1.647-0.833 3.387-1.25 5.22-1.25v0c1.333 0 2.393 0.123 3.18 0.37 0.78 0.253 1.453 0.563 2.02 0.93v0c-0.067 1-0.117 2.023-0.15 3.07-0.033 1.053-0.05 2.03-0.05 2.93v0c-0.467 0.167-1.007 0.283-1.62 0.35-0.62 0.067-1.197 0.1-1.73 0.1v0c0-1.433-0.283-2.6-0.85-3.5-0.567-0.9-1.5-1.35-2.8-1.35v0c-0.833 0-1.507 0.26-2.02 0.78-0.52 0.513-0.897 1.277-1.13 2.29-0.233 1.02-0.35 2.297-0.35 3.83v0 15.5zM139.55-22.4h4.1v3.2c-0.867-0.267-1.733-0.45-2.6-0.55-0.867-0.1-1.6-0.15-2.2-0.15v0c0-0.467 0.05-0.91 0.15-1.33 0.1-0.413 0.283-0.803 0.55-1.17zM148.05-11.35v3.6c0 1.433 0.16 2.533 0.48 3.3 0.313 0.767 0.813 1.3 1.5 1.6 0.68 0.3 1.553 0.5 2.62 0.6v0c0.133 0.3 0.217 0.65 0.25 1.05 0.033 0.4 0.05 0.85 0.05 1.35v0c-0.533-0.033-1.167-0.057-1.9-0.07-0.733-0.02-1.507-0.037-2.32-0.05-0.82-0.02-1.647-0.03-2.48-0.03v0c-1.267 0-2.59 0.01-3.97 0.03-1.387 0.013-2.447 0.053-3.18 0.12v0c0-0.533 0.017-1 0.05-1.4 0.033-0.4 0.1-0.733 0.2-1v0c0.9-0.067 1.6-0.233 2.1-0.5 0.5-0.267 0.85-0.717 1.05-1.35 0.2-0.633 0.3-1.533 0.3-2.7v0-4.55zM168.5 0.45v0c-2.367 0-4.423-0.493-6.17-1.48-1.753-0.98-3.103-2.353-4.05-4.12-0.953-1.767-1.43-3.85-1.43-6.25v0c0-2.333 0.51-4.4 1.53-6.2 1.013-1.8 2.403-3.21 4.17-4.23 1.767-1.013 3.767-1.52 6-1.52v0c2.5 0 4.617 0.5 6.35 1.5 1.733 1 3.05 2.383 3.95 4.15 0.9 1.767 1.35 3.833 1.35 6.2v0c0 2.3-0.483 4.357-1.45 6.17-0.967 1.82-2.323 3.24-4.07 4.26-1.753 1.013-3.813 1.52-6.18 1.52zM169-2.2v0c1.867 0 3.25-0.793 4.15-2.38 0.9-1.58 1.35-3.637 1.35-6.17v0c0-2.067-0.29-3.86-0.87-5.38-0.587-1.513-1.37-2.663-2.35-3.45-0.987-0.78-2.063-1.17-3.23-1.17v0c-1.833 0-3.2 0.767-4.1 2.3-0.9 1.533-1.35 3.5-1.35 5.9v0c0 2.133 0.26 3.983 0.78 5.55 0.513 1.567 1.253 2.757 2.22 3.57 0.967 0.82 2.1 1.23 3.4 1.23zM183.85 0.15v0c0-0.4 0.017-0.817 0.05-1.25 0.033-0.433 0.1-0.817 0.2-1.15v0c1.333-0.033 2.243-0.35 2.73-0.95 0.48-0.6 0.72-1.733 0.72-3.4v0-21.95c0-0.767-0.083-1.4-0.25-1.9-0.167-0.5-0.517-0.883-1.05-1.15-0.533-0.267-1.35-0.4-2.45-0.4v0c0-0.4 0.033-0.783 0.1-1.15 0.067-0.367 0.183-0.7 0.35-1v0c0.7 0 1.55-0.083 2.55-0.25 1-0.167 1.943-0.383 2.83-0.65 0.88-0.267 1.537-0.533 1.97-0.8v0c0.333 0.133 0.617 0.367 0.85 0.7 0.233 0.333 0.35 0.833 0.35 1.5v0 27.05c0 1.667 0.227 2.8 0.68 3.4 0.447 0.6 1.22 0.917 2.32 0.95v0c0.1 0.333 0.177 0.733 0.23 1.2 0.047 0.467 0.07 0.867 0.07 1.2v0c-0.567-0.033-1.183-0.057-1.85-0.07-0.667-0.02-1.367-0.037-2.1-0.05-0.733-0.02-1.45-0.03-2.15-0.03v0c-0.7 0-1.433 0.01-2.2 0.03-0.767 0.013-1.483 0.03-2.15 0.05-0.667 0.013-1.267 0.037-1.8 0.07zM199.5 0.15v0c0-0.4 0.027-0.817 0.08-1.25 0.047-0.433 0.12-0.817 0.22-1.15v0c1.333-0.033 2.233-0.35 2.7-0.95 0.467-0.6 0.7-1.733 0.7-3.4v0-9.35c0-0.8-0.073-1.46-0.22-1.98-0.153-0.513-0.497-0.903-1.03-1.17-0.533-0.267-1.367-0.4-2.5-0.4v0c0-0.4 0.043-0.783 0.13-1.15 0.08-0.367 0.203-0.7 0.37-1v0c0.667 0 1.5-0.083 2.5-0.25 1-0.167 1.95-0.383 2.85-0.65 0.9-0.267 1.567-0.533 2-0.8v0c0.333 0.133 0.617 0.367 0.85 0.7 0.233 0.333 0.35 0.833 0.35 1.5v0 14.55c0 1.667 0.227 2.8 0.68 3.4 0.447 0.6 1.22 0.917 2.32 0.95v0c0.1 0.333 0.167 0.733 0.2 1.2 0.033 0.467 0.05 0.867 0.05 1.2v0c-0.533-0.033-1.133-0.057-1.8-0.07-0.667-0.02-1.367-0.037-2.1-0.05-0.733-0.02-1.45-0.03-2.15-0.03v0c-0.733 0-1.473 0.01-2.22 0.03-0.753 0.013-1.47 0.03-2.15 0.05-0.687 0.013-1.297 0.037-1.83 0.07zM205.4-28.5v0c-0.967 0-1.757-0.293-2.37-0.88-0.62-0.58-0.93-1.303-0.93-2.17v0c0-1 0.333-1.8 1-2.4 0.667-0.6 1.45-0.9 2.35-0.9v0c1.033 0 1.85 0.3 2.45 0.9 0.6 0.6 0.9 1.383 0.9 2.35v0c0 0.833-0.323 1.557-0.97 2.17-0.653 0.62-1.463 0.93-2.43 0.93z" fill="#2a2325" fill-rule="nonzero" stroke="none" stroke-width="1" stroke-linecap="butt" stroke-linejoin="miter" stroke-miterlimit="10" stroke-dasharray="" stroke-dashoffset="0" font-family="none" font-weight="none" font-size="none" text-anchor="none" style="mix-blend-mode: normal" data-fill-palette-color="primary" opacity="1"></path></g></svg></g></svg></g></svg></g></svg></g><g transform="matrix(1,0,0,1,0,8.45785241599998)"><svg viewBox="0 0 106.48770434069147 175.57069516800001" height="175.57069516800001" width="106.48770434069147"><g><svg xmlns="http://www.w3.org/2000/svg" xmlns:xlink="http://www.w3.org/1999/xlink" version="1.1" x="0" y="0" viewBox="33.941554115680795 23.624999999999957 32.086445884319254 52.90225424859379" enable-background="new 0 0 100 100" xml:space="preserve" height="175.57069516800001" width="106.48770434069147" class="icon-icon-0" data-fill-palette-color="accent" id="icon-0"><path fill-rule="evenodd" clip-rule="evenodd" d="M52.9 35.3c0.3 0.1 0.4 0.1 0.6-0.1 0.1-0.1 0.2-0.1 0.3-0.2 0.1-0.1 0.2-0.1 0.3-0.2 0.1-0.1 0.2-0.1 0.3-0.2 0.1-0.1 0.2-0.1 0.3-0.2 0.1-0.1 0.5-0.4 0.7-0.5 0.1-0.1 0.3-0.3 0.4-0.3 0.1 0 0.2-0.2 0.3-0.2 0.1 0 0.2-0.2 0.3-0.2 0.1 0 0.2-0.2 0.3-0.2 0 0 0.2-0.1 0.2-0.1 0 0 0.1-0.2 0.1-0.2 0.1 0 0.2 0 0.2 0 0 0 0.1-0.2 0.1-0.2 0.1 0 0.2 0 0.2 0 0 0 0.1-0.2 0.1-0.2 0.2-0.1 0.3-0.1 0.5-0.2 0.1 0 0-0.1 0.1-0.1 0 0 0.2-0.1 0.2-0.1 0 0 0.1-0.2 0.1-0.2 0.1 0 0.2 0 0.2 0 0 0 0.1-0.2 0.1-0.2 0.1 0 0.2 0 0.2 0 0 0 0.1-0.2 0.1-0.2 0.1 0 0.2 0 0.2 0 0 0 0.1-0.2 0.1-0.2 0.1 0 0.2 0 0.2 0 0 0 0.1-0.2 0.1-0.2 0.2-0.1 0.4-0.1 0.7-0.3 0 0 0.1-0.1 0.1-0.1 0.1-0.1 0.3 0 0.4-0.1 0 0 0.1-0.2 0.1-0.2 0 0 0.2 0 0.2 0 0.1-0.1 0.1-0.3 0.2-0.3 0.5-0.3 1-0.6 1.4-0.7 1-0.1 1.6 0.5 2.4 1.1 0.1 0.2-0.1 0.4 0 0.6 0.1 0.2 0.1 0.7 0 1.1 0 0 0 0.2 0 0.2-0.1 0.1-0.2 0.3-0.3 0.5 0 0.1 0 0.2-0.1 0.3 0 0.1-0.2 0.1-0.2 0.1-0.2 0.3-0.4 0.5-0.6 0.8-0.2 0.3-0.3 0.6-0.5 0.8-0.3 0.3-0.8 0.4-1.2 0.7-0.1 0.1-0.2 0.3-0.4 0.4-0.1 0.1-0.5 0.3-0.7 0.4-0.1 0 0 0.1-0.1 0.1-0.1 0-0.2 0.2-0.3 0.2-0.1 0-0.3 0.2-0.5 0.3-0.1 0.1-0.1 0.2-0.2 0.2 0 0-0.2 0-0.2 0 0 0-0.1 0.2-0.1 0.2-0.1 0.1-0.2 0-0.3 0.1-0.1 0.1-0.1 0.2-0.2 0.3-0.1 0.1-0.2 0-0.3 0.1-0.2 0.1-0.3 0.4-0.5 0.5-0.1 0.1-0.1 0.1-0.2 0.1-0.1 0-0.2 0.2-0.3 0.3 0 0-0.2 0-0.2 0 0 0-0.1 0.2-0.1 0.2 0 0-0.2 0-0.2 0 0 0-0.1 0.2-0.1 0.2 0 0-0.2 0-0.2 0 0 0-0.1 0.2-0.1 0.2-0.1 0.1-0.2 0-0.3 0.1-0.2 0.1-0.3 0.4-0.5 0.5-0.3 0.3-0.6 0.6-0.9 0.9-0.1 0.2-0.4 0.2-0.4 0.5 0.1 0.4 0.2 0.5 0.5 0.7 0.1 0 0.2 0.1 0.2 0.1 0.1 0.1 0.3 0.3 0.4 0.4 0.1 0.1 0.2 0 0.3 0.1 0.1 0 0.1 0.2 0.1 0.2 0.1 0.1 0.2 0 0.3 0.1 0.1 0 0.1 0.2 0.2 0.2 0.1 0.1 0.3 0.2 0.4 0.3 0.1 0.1 0.2 0 0.3 0.1 0.1 0.1 0.2 0.4 0.4 0.6 0.4 0.1 0.8 0.2 1.1 0.5 0.1 0.1 0.3 0.3 0.4 0.4 0.1 0.1 0.1 0.2 0.2 0.2 0 0 0.2 0 0.2 0 0.1 0.1 0.3 0.2 0.5 0.4 0.1 0.1 0.1 0.2 0.2 0.2 0 0 0.2 0 0.2 0 0.1 0.1 0.3 0.3 0.5 0.4 0.1 0.1 0.1 0.2 0.2 0.2 0 0 0.2 0 0.2 0 0.1 0.1 0.3 0.3 0.5 0.4 0.1 0 0.2 0 0.3 0.1 0.1 0.1 0.3 0.4 0.5 0.6 0.1 0 0.2 0.2 0.2 0.2 0 0 0.2 0 0.2 0 0 0 0 0.1 0 0.1 0.1 0.1 0.2 0 0.3 0.1 0.1 0 0.1 0.2 0.2 0.2 0.1 0.1 0.2 0 0.3 0.1 0.2 0.1 0.3 0.4 0.5 0.6 0.1 0.1 0.3 0.2 0.4 0.3 0.1 0.1 0 0.3 0.1 0.4 0 0 0.2 0.1 0.2 0.1 0 0.1 0 0.2 0 0.2 0 0 0.2 0.1 0.2 0.1 0.1 0.2 0 0.3 0.2 0.4 0.1 0.4-0.1 0.7-0.1 1 0.1 0 0.1 0.1 0.1 0.2 0 0.1 0.2 0.3 0.1 0.6-0.1 0.4-0.8 1-1.2 1.2-0.1 0.3-0.3 0.5-0.5 0.7-0.2 0.1-0.5 0.1-0.7 0.2 0.1 0-0.6 0.3-0.7 0.1-0.1-0.1-0.1-0.1-0.3-0.1 0 0-0.2 0-0.2 0-0.1-0.1-0.9-0.1-1.2-0.2 0 0 0-0.1-0.1-0.1-0.1 0-0.2-0.2-0.4-0.2 0 0-0.3-0.1-0.3-0.1-0.1-0.1-0.2-0.2-0.3-0.3-0.1 0-0.1-0.1-0.2-0.1 0 0-0.3-0.1-0.3-0.1C60 53.3 60 53.1 59.8 53c0 0-0.2-0.1-0.2-0.1-0.1-0.1-0.2-0.2-0.3-0.3 0 0-0.2 0-0.2 0 0 0-0.1-0.2-0.1-0.2 0 0-0.2 0-0.2 0-0.1-0.1-0.1-0.3-0.3-0.3 0 0-0.2-0.1-0.2-0.1-0.1-0.1-0.2-0.2-0.3-0.3-0.1 0-0.1-0.1-0.2-0.1-0.1-0.1-0.3-0.3-0.4-0.3-0.1 0-0.1-0.2-0.2-0.2-0.1 0-0.2 0-0.2 0-0.1-0.1-0.2-0.2-0.3-0.3-0.1 0-0.1-0.1-0.2-0.1 0 0-0.1-0.1-0.1-0.1-0.4-0.2-0.8-0.1-1.1-0.3-0.1 0 0-0.1-0.1-0.1-0.2 0-0.2-0.3-0.4-0.4 0 0-0.2 0-0.2 0-0.1-0.1-0.1-0.2-0.3-0.3-0.1-0.1-0.2-0.1-0.3-0.2-0.1-0.1-0.2-0.1-0.3-0.2-0.1-0.1-0.5-0.4-0.8-0.4-0.2 0.1-0.2 0.2-0.3 0.4-0.1 0.2-0.1 0.4-0.1 0.6-0.1 0.6 0 1.2-0.1 2 0 0.3-0.1 0.7-0.1 1.2 0 0.3 0.1 0.3 0 0.6 0 0.1 0.2 0.9 0 1C52 54.8 52 55.5 52 55.9c0 0.4 0 0.8-0.1 1.2 0 0.4-0.2 0.8-0.2 1.1-0.1 1 0 1.9 0 2.9 0 0.1 0 0.1 0 0.2-0.1 0.6 0 1.8 0 2.7 0 0.3-0.1 0.5-0.1 0.7 0 0.3 0.1 0.6 0.1 0.9 0.1 0.9 0.1 2 0.1 3 0 0.8 0 1.7-0.1 2.4-0.1 0.3 0 0.8-0.1 1.3 0 0.3-0.1 0.6-0.2 0.8-0.2 0.7-0.3 1.7-0.3 2.7-0.1 0.1-0.2 0.1-0.3 0.2 0 0-0.1 0.2-0.1 0.2-0.1 0.1-0.3 0-0.4 0.1-0.2 0.1-0.5 0.3-1 0.2-0.2 0-0.7-0.4-1.1-0.5-0.1 0-0.1 0-0.2 0 0 0-0.3-0.1-0.3-0.1-0.1-0.2-0.3-0.2-0.5-0.4-0.1-0.1-0.3-0.3-0.4-0.4-0.4-0.3-0.6-0.5-0.7-0.8-0.2-0.4-0.1-0.8-0.1-1.3-0.1-1.1-0.1-2.1-0.1-3.4 0 0 0.1 0 0.1-0.1 0 0-0.1 0-0.1-0.1 0-0.1 0-0.2 0-0.3 0-1.3 0-2.6 0.1-4 0-0.2 0.1-0.4 0.1-0.6 0.1-1.9-0.2-4.2 0-6.2 0.1-0.9 0.1-1.7 0.1-2.6 0-1.9-0.2-3.8 0-5.4 0.1-0.9 0.5-1.7 0-2.5-0.4-0.2-0.7 0.3-1 0.3-0.1 0-0.2 0.2-0.3 0.2-0.1 0-0.1 0.1-0.2 0.1-0.1 0-0.1 0.2-0.2 0.2 0 0-0.2 0-0.2 0 0 0 0 0.1 0 0.1-0.1 0-0.2 0-0.3 0.1 0 0-0.1 0.2-0.1 0.2-0.1 0.1-0.2 0-0.3 0.1 0 0-0.1 0.2-0.1 0.2-0.1 0.1-0.2 0-0.3 0.1-0.1 0.1-0.2 0.4-0.4 0.5-0.1 0.1-0.2 0-0.3 0.1 0 0-0.1 0.2-0.1 0.2-0.1 0.1-0.2 0-0.3 0.1-0.1 0.1-0.3 0.4-0.5 0.5-0.1 0.1-0.3 0.2-0.4 0.3-0.1 0.1-0.1 0.2-0.2 0.2 0 0-0.2 0-0.2 0C40.3 51.8 40.3 52 40 52c-0.2 0-0.2 0.3-0.4 0.3-0.1 0-0.1 0.2-0.2 0.2 0 0-0.2 0-0.2 0 0 0 0 0.1 0 0.1-0.3 0.2-0.6 0.1-0.9 0.2 0 0 0 0.1-0.1 0.1-0.2 0-0.8 0.4-1.2 0.3 0 0 0-0.1-0.1-0.1-0.2 0-0.3 0-0.5-0.1-0.1 0-0.3 0-0.4-0.1-0.1-0.1-0.3-0.3-0.4-0.4-0.1-0.1-0.3-0.3-0.4-0.5C35 52 35 52 35 51.8c0-0.1-0.1-0.1-0.1-0.1-0.1-0.4-0.1-1.5 0.2-2 0-0.1 0.1 0 0.1-0.1 0-0.1 0.3-0.4 0.4-0.5 0 0 0.2 0 0.2 0 0.1-0.1 0.1-0.2 0.3-0.3 0.2-0.1 0.6-0.3 0.8-0.5 0.3-0.3 0.4-0.6 0.8-0.8 0.1 0 0.1-0.1 0.2-0.1 0.1-0.1 0.2-0.1 0.3-0.2 0.1-0.1 0.2-0.1 0.3-0.2 0.1-0.1 0.3-0.1 0.3-0.1 0.1-0.1 0.1-0.3 0.3-0.3 0.1 0 0.2-0.2 0.3-0.2 0.1 0 0.2-0.2 0.3-0.2 0.1 0 0.3-0.3 0.5-0.4 0.2-0.2 0.5-0.3 0.8-0.5 0.3-0.2 0.9-0.6 1.4-1 0.1 0 0-0.1 0.1-0.1 0.1 0 0.2-0.2 0.4-0.2 0.1 0 0.2-0.2 0.3-0.2 0.1 0 0.3-0.1 0.4-0.2 0.6-0.4 1.6-0.7 1.1-1.6 0-0.1-0.1 0-0.1-0.1 0-0.2-0.6-0.6-0.8-0.8-0.2-0.2-0.4-0.4-0.6-0.6-0.3-0.2-0.6-0.2-0.8-0.4-0.1-0.3-0.5-0.6-0.7-0.9-0.1-0.1-0.2-0.3-0.3-0.5-0.1-0.1-0.4-0.4-0.6-0.5-0.1-0.1-0.5-0.4-0.7-0.5-0.1 0-0.2 0-0.3-0.1 0 0-0.1-0.2-0.1-0.2-0.1-0.1-0.2-0.1-0.4-0.2-0.1-0.1-0.2-0.1-0.3-0.2-0.1-0.1-0.1-0.1-0.2-0.2-0.2-0.1-0.4-0.3-0.6-0.4 0 0-0.1-0.2-0.1-0.2-0.1-0.1-0.2-0.1-0.4-0.2 0 0-0.1-0.2-0.1-0.2-0.1-0.1-0.2-0.1-0.4-0.2 0 0-0.1-0.2-0.1-0.2-0.1-0.1-0.3-0.1-0.4-0.2-0.1-0.1-0.3-0.3-0.4-0.4-0.1-0.1 0-0.2-0.1-0.3 0 0-0.2 0-0.2-0.1-0.1-0.2-0.2-0.3-0.3-0.5-0.1-0.1-0.3-0.2-0.4-0.3-0.1-0.1 0-0.2-0.1-0.3-0.1-0.1-0.5-0.3-0.6-0.5-0.1-0.1 0-0.2-0.1-0.3 0 0-0.2-0.1-0.2-0.1-0.1-0.1-0.1-0.2-0.1-0.3 0 0-0.1-0.4-0.1-0.4-0.3-0.2-0.1-2.1 0-2.5 0-0.1 0.1 0 0.1-0.1 0-0.1 0.2-0.2 0.3-0.3 0.1-0.1 0.2-0.2 0.4-0.3 0.1 0 0.1-0.1 0.2-0.1 0.1 0 0.4-0.3 0.6-0.3 0.1 0 0.2-0.2 0.3-0.2 0.1 0 0.3-0.2 0.6-0.2 1-0.1 1.7 0.6 2.8 0.4 0.1 0.1 0.2 0.2 0.3 0.3 0.5 0.4 1 1 1.6 1.5 0.3 0.2 0.5 0.5 0.8 0.7 0.1 0.1 0.2 0.1 0.3 0.2 0 0 0.4 0.4 0.5 0.4 0 0 0.2 0.1 0.2 0.1 0 0 0.1 0.2 0.1 0.2 0 0 0.2 0 0.2 0 0.1 0.1 0.1 0.2 0.2 0.3 0 0 0.2 0 0.2 0 0.1 0.1 0.1 0.2 0.3 0.3 0.2 0.1 0.5 0.3 0.7 0.5 0.1 0.1 0.2 0.1 0.3 0.2 0 0 0.1 0.2 0.1 0.2 0 0 0.2 0 0.2 0 0.1 0.1 0.1 0.2 0.2 0.3 0 0 0.2 0 0.2 0 0.1 0.1 0.4 0.5 0.7 0.5 0.4-0.5 0.3-1 0.4-1.7 0.1-1.7-0.1-4.1 0.2-5.7 0-0.2 0.1-0.5 0.2-0.7 0-0.1 0-0.3 0.1-0.4 0-0.1 0.2-0.1 0.2-0.2 0.2-0.3 0.5-0.6 0.8-0.8 0.1-0.1 0.2-0.3 0.3-0.3 0.1-0.1 0.4-0.1 0.6-0.1 0.1 0 0.2-0.2 0.2-0.2 0.1 0 0.2 0 0.3 0 0.3-0.1 0.5-0.1 1.1 0 0.3 0 0.5 0 0.7 0.1 0 0 0 0.1 0.1 0.1 0.1 0 0.9 0.7 0.9 0.9 0 0 0.1 0.1 0.1 0.2 0.1 0.2 0.1 0.3 0.2 0.5 0 0.1 0.1 0.2 0.1 0.3 0.1 0.3 0.3 1.7 0.2 2.4-0.1 0.5-0.1 1.7-0.1 2.6C52.8 32.1 52.8 33.8 52.9 35.3z" fill="#2cb3b2" data-fill-palette-color="accent"></path></svg></g></svg></g></svg></g><defs></defs></svg><rect width="395.5199999999999" height="145.45857556766788" fill="none" stroke="none" visibility="hidden"></rect></g></svg></g></svg>